<?xml version="1.0" encoding="UTF-8"?>
<!DOCTYPE svg PUBLIC "-//W3C//DTD SVG 1.1//EN" "http://www.w3.org/Graphics/SVG/1.1/DTD/svg11.dtd">
<svg xmlns="http://www.w3.org/2000/svg" version="1.1" width="493px" height="506px" style="shape-rendering:geometricPrecision; text-rendering:geometricPrecision; image-rendering:optimizeQuality; fill-rule:evenodd; clip-rule:evenodd" xmlns:xlink="http://www.w3.org/1999/xlink">
<g><path style="opacity:0.849" fill="#f1c47c" d="M 227.5,15.5 C 250.524,13.4075 273.524,14.5741 296.5,19C 302.873,20.0431 308.873,21.8764 314.5,24.5C 286.036,17.4868 257.036,14.4868 227.5,15.5 Z"/></g>
<g><path style="opacity:0.898" fill="#f2c478" d="M 227.5,15.5 C 221.156,17.7776 214.489,18.7776 207.5,18.5C 213.91,16.7188 220.576,15.7188 227.5,15.5 Z"/></g>
<g><path style="opacity:1" fill="#feb031" d="M 227.5,15.5 C 257.036,14.4868 286.036,17.4868 314.5,24.5C 314.833,24.5 315.167,24.5 315.5,24.5C 319.49,26.5867 323.823,27.9201 328.5,28.5C 328.833,28.5 329.167,28.5 329.5,28.5C 334.946,32.0516 340.946,34.8849 347.5,37C 353.734,41.3535 360.401,44.8535 367.5,47.5C 368.386,48.325 368.719,49.325 368.5,50.5C 374.178,52.8546 379.845,55.188 385.5,57.5C 386.539,59.5311 388.205,60.8645 390.5,61.5C 391.606,64.0772 393.606,65.7439 396.5,66.5C 398.674,66.7497 400.341,67.7497 401.5,69.5C 403.75,72.774 406.084,76.1074 408.5,79.5C 412.019,82.4207 415.686,85.0873 419.5,87.5C 419.833,87.5 420.167,87.5 420.5,87.5C 420.682,92.0167 423.015,94.6834 427.5,95.5C 428.08,97.7488 429.413,99.4154 431.5,100.5C 432.08,102.749 433.413,104.415 435.5,105.5C 436.419,108.089 438.086,110.089 440.5,111.5C 442.218,113.223 443.551,115.223 444.5,117.5C 444.266,121.21 445.933,123.544 449.5,124.5C 447.493,129.125 448.827,132.459 453.5,134.5C 454.466,136.396 454.799,138.396 454.5,140.5C 456.716,141.044 458.716,142.044 460.5,143.5C 460.166,146.491 461.166,148.824 463.5,150.5C 464.349,155.389 466.349,159.723 469.5,163.5C 470.023,166.89 470.857,170.223 472,173.5C 472.383,174.056 472.883,174.389 473.5,174.5C 473.259,176.898 473.926,178.898 475.5,180.5C 476.191,185.598 477.358,190.598 479,195.5C 479.2,197.32 480.034,198.653 481.5,199.5C 481.5,200.167 481.5,200.833 481.5,201.5C 482.098,210.741 483.431,219.741 485.5,228.5C 487.004,236.541 487.671,244.707 487.5,253C 487.673,261.388 487.006,269.555 485.5,277.5C 484.778,277.918 484.278,278.584 484,279.5C 482.509,287.774 481.676,296.107 481.5,304.5C 481.5,305.5 481.5,306.5 481.5,307.5C 479.947,310.24 478.114,312.907 476,315.5C 474.933,320.806 474.099,326.139 473.5,331.5C 472.076,333.515 471.41,335.848 471.5,338.5C 471.5,338.833 471.5,339.167 471.5,339.5C 470.624,339.369 469.957,339.702 469.5,340.5C 468.863,343.107 467.696,345.44 466,347.5C 464.002,351.993 462.502,356.66 461.5,361.5C 460.921,364.331 459.588,366.664 457.5,368.5C 456.33,370.279 454.664,371.279 452.5,371.5C 451.512,375.622 450.012,379.622 448,383.5C 446.989,384.337 445.822,384.67 444.5,384.5C 444.5,386.167 444.5,387.833 444.5,389.5C 443.292,390.234 441.959,390.567 440.5,390.5C 440.413,387.422 439.08,385.089 436.5,383.5C 435.833,383.5 435.5,383.167 435.5,382.5C 435.267,380.938 434.6,379.605 433.5,378.5C 432.746,375.922 432.746,373.256 433.5,370.5C 432.178,370.67 431.011,370.337 430,369.5C 429.654,367.782 429.154,366.115 428.5,364.5C 429.484,362.52 430.817,360.853 432.5,359.5C 432.192,358.692 431.692,358.025 431,357.5C 429.663,360.002 427.829,362.002 425.5,363.5C 422.5,360.833 419.5,358.167 416.5,355.5C 415.038,356.471 413.705,356.138 412.5,354.5C 408.541,353.673 404.541,353.173 400.5,353C 400.167,352.667 399.833,352.333 399.5,352C 400.833,351.667 402.167,351.333 403.5,351C 396.508,350.5 389.508,350.334 382.5,350.5C 375.877,349.316 369.211,348.316 362.5,347.5C 361.167,347.5 359.833,347.5 358.5,347.5C 349.872,344.798 340.872,343.465 331.5,343.5C 329.967,341.755 327.967,340.755 325.5,340.5C 323.551,338.437 321.218,337.104 318.5,336.5C 317.612,334.727 316.279,333.394 314.5,332.5C 312.354,333.894 310.021,334.56 307.5,334.5C 305.766,329.304 304.1,324.304 302.5,319.5C 302.335,316.15 302.502,312.817 303,309.5C 305.519,307.789 307.019,305.455 307.5,302.5C 309.888,296.727 313.055,291.393 317,286.5C 318.116,281.868 319.616,277.368 321.5,273C 321.836,271.97 322.503,271.47 323.5,271.5C 325.634,270.297 326.968,268.463 327.5,266C 331.708,265.827 335.541,264.66 339,262.5C 339.822,260.212 340.489,257.878 341,255.5C 343.903,253.454 345.736,250.787 346.5,247.5C 349.678,246.789 352.678,245.622 355.5,244C 356.536,240.829 357.87,237.829 359.5,235C 360.996,234.493 362.163,234.993 363,236.5C 363.333,236.167 363.667,235.833 364,235.5C 363.656,233.742 363.156,231.909 362.5,230C 364.307,224.728 364.974,219.228 364.5,213.5C 362.179,212.523 359.846,211.523 357.5,210.5C 353.817,209.325 350.15,209.325 346.5,210.5C 346.5,209.5 346.5,208.5 346.5,207.5C 346.5,206.833 346.5,206.167 346.5,205.5C 347.768,203.095 348.435,200.428 348.5,197.5C 349.935,195.402 351.102,193.069 352,190.5C 352.639,177.154 352.473,163.821 351.5,150.5C 350.5,150.5 349.5,150.5 348.5,150.5C 347.865,147.507 347.699,144.507 348,141.5C 348.772,140.151 349.939,139.318 351.5,139C 351.043,138.586 350.709,138.086 350.5,137.5C 352.051,132.938 353.384,128.271 354.5,123.5C 354.333,122.833 354.167,122.167 354,121.5C 353.15,122.424 352.15,122.424 351,121.5C 349.97,121.836 349.47,122.503 349.5,123.5C 349.167,123.5 348.833,123.5 348.5,123.5C 347.325,123.719 346.325,123.386 345.5,122.5C 347.086,120.827 347.753,118.827 347.5,116.5C 347.5,116.167 347.5,115.833 347.5,115.5C 350.114,112.032 351.114,108.032 350.5,103.5C 348.801,103.34 347.134,103.506 345.5,104C 345.273,105.135 344.94,106.302 344.5,107.5C 343.808,106.975 343.308,106.308 343,105.5C 342.506,107.134 342.34,108.801 342.5,110.5C 341.448,110.649 340.448,110.483 339.5,110C 340.476,103.924 340.81,97.7576 340.5,91.5C 336.778,90.6799 334.445,92.0132 333.5,95.5C 330.728,96.3715 328.062,96.3715 325.5,95.5C 326.875,91.3025 327.542,86.9691 327.5,82.5C 328.468,80.3926 328.802,78.0593 328.5,75.5C 326.799,75.9662 325.299,75.9662 324,75.5C 322.613,79.3066 321.113,79.3066 319.5,75.5C 319.818,74.3527 320.484,73.5194 321.5,73C 320.552,72.5172 319.552,72.3505 318.5,72.5C 318.104,75.4822 318.771,78.1489 320.5,80.5C 317.788,81.2281 315.121,82.0615 312.5,83C 313.337,84.0113 313.67,85.1779 313.5,86.5C 310.5,87.1667 307.5,87.8333 304.5,88.5C 305.044,86.4205 305.878,84.4205 307,82.5C 308.011,81.6634 309.178,81.33 310.5,81.5C 310.5,80.5 310.5,79.5 310.5,78.5C 309.167,78.5 307.833,78.5 306.5,78.5C 306.5,79.5 306.5,80.5 306.5,81.5C 304.328,82.8011 301.995,83.8011 299.5,84.5C 299.261,86.4672 299.594,88.3005 300.5,90C 298.833,90.6667 297.167,90.6667 295.5,90C 297.335,85.3071 298.335,80.3071 298.5,75C 298.333,73.8333 298.167,72.6667 298,71.5C 296.644,72.3802 295.144,72.7135 293.5,72.5C 293.798,69.6644 293.131,69.1644 291.5,71C 292.38,72.3561 292.714,73.8561 292.5,75.5C 292.5,75.8333 292.5,76.1667 292.5,76.5C 288.104,79.0251 284.104,82.0251 280.5,85.5C 278.847,85.6596 277.514,86.3263 276.5,87.5C 274.883,88.038 273.216,88.3713 271.5,88.5C 268.703,88.0334 267.369,86.3667 267.5,83.5C 266.167,83.5 264.833,83.5 263.5,83.5C 263.5,82.1667 263.5,80.8333 263.5,79.5C 258.94,80.9109 254.273,82.0776 249.5,83C 249.833,83.3333 250.167,83.6667 250.5,84C 241.506,84.8857 232.506,85.719 223.5,86.5C 221.709,87.1698 220.042,87.8365 218.5,88.5C 209.775,88.6738 201.109,89.5071 192.5,91C 188.819,91.8722 185.819,93.7055 183.5,96.5C 182.833,97.1667 182.167,97.8333 181.5,98.5C 171.942,103.236 165.942,110.902 163.5,121.5C 163.167,121.5 162.833,121.5 162.5,121.5C 161.883,121.611 161.383,121.944 161,122.5C 160.667,126.167 160.333,129.833 160,133.5C 158.517,136.161 156.35,137.828 153.5,138.5C 153.5,140.167 153.5,141.833 153.5,143.5C 152.89,144.391 152.557,145.391 152.5,146.5C 151.833,147.167 151.167,147.833 150.5,148.5C 148.872,152.12 147.206,155.953 145.5,160C 144.401,169.142 144.234,178.309 145,187.5C 148.028,193.807 149.195,200.474 148.5,207.5C 136.336,208.849 131.836,215.516 135,227.5C 136.146,232.136 138.646,235.803 142.5,238.5C 146.694,242.188 150.861,246.188 155,250.5C 158.101,254.059 160.268,258.059 161.5,262.5C 164.488,264.14 167.821,264.974 171.5,265C 173.15,268.485 175.15,271.651 177.5,274.5C 180.013,284.185 184.513,292.851 191,300.5C 191.49,301.793 191.657,303.127 191.5,304.5C 193.864,308.447 194.864,312.78 194.5,317.5C 193.62,323.475 192.953,329.475 192.5,335.5C 192.179,337.048 191.179,337.715 189.5,337.5C 187.847,337.34 186.514,336.674 185.5,335.5C 183.372,334.371 181.039,334.204 178.5,335C 174.031,337.282 169.365,338.948 164.5,340C 165.308,340.308 165.975,340.808 166.5,341.5C 161.757,341.877 157.424,342.877 153.5,344.5C 146.476,345.836 139.476,347.169 132.5,348.5C 125.269,349.491 117.936,350.324 110.5,351C 108.685,351.757 107.019,352.59 105.5,353.5C 103.901,353.232 102.568,353.566 101.5,354.5C 100.167,354.5 98.8333,354.5 97.5,354.5C 95.4727,354.338 93.4727,354.505 91.5,355C 91.8333,355.333 92.1667,355.667 92.5,356C 88.7835,358.128 84.7835,359.461 80.5,360C 80.3809,361.145 80.0476,362.312 79.5,363.5C 74.1338,367.866 69.4671,372.866 65.5,378.5C 64.2993,380.909 62.6326,382.909 60.5,384.5C 58.9519,384.821 58.2852,385.821 58.5,387.5C 57.1779,387.33 56.0113,387.663 55,388.5C 53.5315,385.858 51.3648,384.191 48.5,383.5C 48.5,383.167 48.5,382.833 48.5,382.5C 45.7036,373.567 41.3702,365.567 35.5,358.5C 36.1128,355.031 34.7794,353.031 31.5,352.5C 31.5,351.833 31.5,351.167 31.5,350.5C 29.3774,343.562 27.2108,336.562 25,329.5C 24.059,327.273 22.8923,325.273 21.5,323.5C 20.6708,318.846 19.8375,314.18 19,309.5C 18.1398,306.916 16.9731,304.583 15.5,302.5C 15.5,302.167 15.5,301.833 15.5,301.5C 15.2597,293.601 14.2597,285.934 12.5,278.5C 12.3334,264.496 12.5001,250.496 13,236.5C 15.3028,219.861 17.8028,203.194 20.5,186.5C 22.8187,181.911 25.152,177.245 27.5,172.5C 28.3925,167.903 29.7258,163.569 31.5,159.5C 32.9641,157.37 34.9641,156.037 37.5,155.5C 37.385,150.184 38.5516,145.184 41,140.5C 41.3333,140.833 41.6667,141.167 42,141.5C 42.696,138.522 43.196,135.522 43.5,132.5C 47.6449,129.56 50.3116,125.56 51.5,120.5C 54.1149,119.55 56.1149,117.883 57.5,115.5C 60.2722,112.072 62.6056,108.405 64.5,104.5C 67.8333,100.167 71.1667,95.8333 74.5,91.5C 79.1667,87.5 83.5,83.1667 87.5,78.5C 87.5,77.1667 88.1667,76.5 89.5,76.5C 92.3711,74.4636 95.3711,72.6303 98.5,71C 99.3366,69.9887 99.67,68.8221 99.5,67.5C 100.552,67.6495 101.552,67.4828 102.5,67C 107.088,62.8973 111.754,59.064 116.5,55.5C 121.923,54.7088 125.923,52.0422 128.5,47.5C 131.407,47.4248 134.073,46.5914 136.5,45C 138.063,44.2411 139.063,43.0744 139.5,41.5C 144.904,39.9761 150.237,38.1428 155.5,36C 157.093,35.0513 158.426,33.8846 159.5,32.5C 162.167,32.5 164.833,32.5 167.5,32.5C 167.5,31.5 167.5,30.5 167.5,29.5C 171.382,29.1514 175.215,28.4847 179,27.5C 180.561,27.6032 182.061,27.9366 183.5,28.5C 185.725,25.9062 188.391,24.2395 191.5,23.5C 191.833,22.8333 192.167,22.1667 192.5,21.5C 197.596,21.9561 202.262,20.9561 206.5,18.5C 206.833,18.5 207.167,18.5 207.5,18.5C 214.489,18.7776 221.156,17.7776 227.5,15.5 Z"/></g>
<g><path style="opacity:0.941" fill="#ebc376" d="M 206.5,18.5 C 202.262,20.9561 197.596,21.9561 192.5,21.5C 196.973,20.1331 201.64,19.1331 206.5,18.5 Z"/></g>
<g><path style="opacity:0.384" fill="#efcf8e" d="M 192.5,21.5 C 192.167,22.1667 191.833,22.8333 191.5,23.5C 189.5,23.5 187.5,23.5 185.5,23.5C 187.657,22.5933 189.99,21.9267 192.5,21.5 Z"/></g>
<g><path style="opacity:1" fill="#f3b64e" d="M 185.5,23.5 C 187.5,23.5 189.5,23.5 191.5,23.5C 188.391,24.2395 185.725,25.9062 183.5,28.5C 182.061,27.9366 180.561,27.6032 179,27.5C 175.215,28.4847 171.382,29.1514 167.5,29.5C 167.5,30.5 167.5,31.5 167.5,32.5C 164.833,32.5 162.167,32.5 159.5,32.5C 167.557,27.9787 176.224,24.9787 185.5,23.5 Z"/></g>
<g><path style="opacity:0.659" fill="#f1ce8a" d="M 315.5,24.5 C 320.17,25.0161 324.503,26.3494 328.5,28.5C 323.823,27.9201 319.49,26.5867 315.5,24.5 Z"/></g>
<g><path style="opacity:0.341" fill="#f0c272" d="M 329.5,28.5 C 349.619,35.5583 368.286,45.225 385.5,57.5C 379.845,55.188 374.178,52.8546 368.5,50.5C 368.719,49.325 368.386,48.325 367.5,47.5C 360.401,44.8535 353.734,41.3535 347.5,37C 340.946,34.8849 334.946,32.0516 329.5,28.5 Z"/></g>
<g><path style="opacity:1" fill="#f0bd64" d="M 159.5,32.5 C 158.426,33.8846 157.093,35.0513 155.5,36C 150.237,38.1428 144.904,39.9761 139.5,41.5C 145.562,37.4746 152.229,34.4746 159.5,32.5 Z"/></g>
<g><path style="opacity:0.973" fill="#eec06d" d="M 139.5,41.5 C 139.063,43.0744 138.063,44.2411 136.5,45C 134.073,46.5914 131.407,47.4248 128.5,47.5C 131.646,44.7563 135.313,42.7563 139.5,41.5 Z"/></g>
<g><path style="opacity:1" fill="#f3bb5c" d="M 128.5,47.5 C 125.923,52.0422 121.923,54.7088 116.5,55.5C 120.148,52.3401 124.148,49.6735 128.5,47.5 Z"/></g>
<g><path style="opacity:0.525" fill="#efc880" d="M 385.5,57.5 C 387.754,58.1237 389.421,59.457 390.5,61.5C 388.205,60.8645 386.539,59.5311 385.5,57.5 Z"/></g>
<g><path style="opacity:0.663" fill="#f2c97f" d="M 116.5,55.5 C 111.754,59.064 107.088,62.8973 102.5,67C 101.552,67.4828 100.552,67.6495 99.5,67.5C 103.095,64.3511 106.762,61.1844 110.5,58C 112.407,56.878 114.407,56.0447 116.5,55.5 Z"/></g>
<g><path style="opacity:0.404" fill="#f6d190" d="M 390.5,61.5 C 393.155,62.497 395.155,64.1637 396.5,66.5C 393.606,65.7439 391.606,64.0772 390.5,61.5 Z"/></g>
<g><path style="opacity:0.588" fill="#f2cc7e" d="M 99.5,67.5 C 99.67,68.8221 99.3366,69.9887 98.5,71C 95.3711,72.6303 92.3711,74.4636 89.5,76.5C 92.1849,72.8169 95.5182,69.8169 99.5,67.5 Z"/></g>
<g><path style="opacity:1" fill="#f3ab39" d="M 327.5,82.5 C 327.762,81.0222 327.429,79.6888 326.5,78.5C 323.386,80.3797 320.72,82.713 318.5,85.5C 314.004,88.0221 309.337,90.0221 304.5,91.5C 301.123,91.9595 297.789,92.6261 294.5,93.5C 293.5,93.5 292.5,93.5 291.5,93.5C 291.5,92.5 291.5,91.5 291.5,90.5C 294.34,85.1521 295.84,79.4854 296,73.5C 295.184,74.8228 294.017,75.4894 292.5,75.5C 292.714,73.8561 292.38,72.3561 291.5,71C 293.131,69.1644 293.798,69.6644 293.5,72.5C 295.144,72.7135 296.644,72.3802 298,71.5C 298.167,72.6667 298.333,73.8333 298.5,75C 298.335,80.3071 297.335,85.3071 295.5,90C 297.167,90.6667 298.833,90.6667 300.5,90C 299.594,88.3005 299.261,86.4672 299.5,84.5C 301.995,83.8011 304.328,82.8011 306.5,81.5C 306.5,80.5 306.5,79.5 306.5,78.5C 307.833,78.5 309.167,78.5 310.5,78.5C 310.5,79.5 310.5,80.5 310.5,81.5C 309.178,81.33 308.011,81.6634 307,82.5C 305.878,84.4205 305.044,86.4205 304.5,88.5C 307.5,87.8333 310.5,87.1667 313.5,86.5C 313.67,85.1779 313.337,84.0113 312.5,83C 315.121,82.0615 317.788,81.2281 320.5,80.5C 318.771,78.1489 318.104,75.4822 318.5,72.5C 319.552,72.3505 320.552,72.5172 321.5,73C 320.484,73.5194 319.818,74.3527 319.5,75.5C 321.113,79.3066 322.613,79.3066 324,75.5C 325.299,75.9662 326.799,75.9662 328.5,75.5C 328.802,78.0593 328.468,80.3926 327.5,82.5 Z"/></g>
<g><path style="opacity:1" fill="#2a1b09" d="M 292.5,76.5 C 292.461,77.5832 292.127,78.5832 291.5,79.5C 289.518,80.2162 287.851,81.3829 286.5,83C 286.833,83.3333 287.167,83.6667 287.5,84C 285.26,84.977 282.927,85.477 280.5,85.5C 284.104,82.0251 288.104,79.0251 292.5,76.5 Z"/></g>
<g><path style="opacity:0.459" fill="#f2cb84" d="M 87.5,78.5 C 83.5,83.1667 79.1667,87.5 74.5,91.5C 77.8333,86.1667 82.1667,81.8333 87.5,78.5 Z"/></g>
<g><path style="opacity:1" fill="#271707" d="M 327.5,82.5 C 326.761,86.0449 325.428,89.3783 323.5,92.5C 323.704,89.4824 324.037,86.4824 324.5,83.5C 322.315,83.7036 320.315,84.3702 318.5,85.5C 320.72,82.713 323.386,80.3797 326.5,78.5C 327.429,79.6888 327.762,81.0222 327.5,82.5 Z"/></g>
<g><path style="opacity:0.953" fill="#edc06a" d="M 401.5,69.5 C 405.135,72.6589 408.802,75.8256 412.5,79C 415.447,81.4356 417.78,84.2689 419.5,87.5C 415.686,85.0873 412.019,82.4207 408.5,79.5C 406.084,76.1074 403.75,72.774 401.5,69.5 Z"/></g>
<g><path style="opacity:1" fill="#2e1d09" d="M 259.5,85.5 C 255.718,89.6234 251.385,92.9567 246.5,95.5C 246.343,94.1266 246.51,92.7932 247,91.5C 249.263,92.5887 251.096,91.922 252.5,89.5C 251.264,88.6433 249.931,87.9766 248.5,87.5C 243.627,89.0416 238.627,89.7083 233.5,89.5C 233.5,89.1667 233.5,88.8333 233.5,88.5C 243.497,88.0021 252.83,85.3355 261.5,80.5C 261.833,80.6667 262.167,80.8333 262.5,81C 261.614,82.6147 260.614,84.1147 259.5,85.5 Z"/></g>
<g><path style="opacity:1" fill="#f5ae3a" d="M 271.5,88.5 C 269.5,89.8333 267.5,91.1667 265.5,92.5C 264.833,92.5 264.167,92.5 263.5,92.5C 260.639,92.3416 257.972,93.0083 255.5,94.5C 254.833,94.1667 254.167,93.8333 253.5,93.5C 255.934,91.079 257.934,88.4123 259.5,85.5C 260.614,84.1147 261.614,82.6147 262.5,81C 262.167,80.8333 261.833,80.6667 261.5,80.5C 252.83,85.3355 243.497,88.0021 233.5,88.5C 229.167,88.5 224.833,88.5 220.5,88.5C 219.833,88.5 219.167,88.5 218.5,88.5C 220.042,87.8365 221.709,87.1698 223.5,86.5C 232.506,85.719 241.506,84.8857 250.5,84C 250.167,83.6667 249.833,83.3333 249.5,83C 254.273,82.0776 258.94,80.9109 263.5,79.5C 263.5,80.8333 263.5,82.1667 263.5,83.5C 264.833,83.5 266.167,83.5 267.5,83.5C 267.369,86.3667 268.703,88.0334 271.5,88.5 Z"/></g>
<g><path style="opacity:1" fill="#6b4814" d="M 220.5,88.5 C 224.833,88.5 229.167,88.5 233.5,88.5C 233.5,88.8333 233.5,89.1667 233.5,89.5C 226.504,89.8936 219.504,90.2269 212.5,90.5C 215.167,89.8333 217.833,89.1667 220.5,88.5 Z"/></g>
<g><path style="opacity:1" fill="#e8ab47" d="M 218.5,88.5 C 219.167,88.5 219.833,88.5 220.5,88.5C 217.833,89.1667 215.167,89.8333 212.5,90.5C 208.4,90.2367 204.4,90.5701 200.5,91.5C 197.848,91.4095 195.515,92.0762 193.5,93.5C 190.064,94.192 186.73,95.192 183.5,96.5C 185.819,93.7055 188.819,91.8722 192.5,91C 201.109,89.5071 209.775,88.6738 218.5,88.5 Z"/></g>
<g><path style="opacity:1" fill="#151413" d="M 292.5,76.5 C 293.586,76.62 294.253,77.2867 294.5,78.5C 293.67,80.8284 292.837,83.1617 292,85.5C 291.465,83.7295 290.631,83.3961 289.5,84.5C 291.037,87.6853 290.37,90.352 287.5,92.5C 287.96,94.7857 289.293,96.119 291.5,96.5C 293.5,95.8333 295.5,95.1667 297.5,94.5C 300.388,97.4621 301.721,96.7954 301.5,92.5C 302.791,92.7373 303.791,92.404 304.5,91.5C 309.337,90.0221 314.004,88.0221 318.5,85.5C 320.315,84.3702 322.315,83.7036 324.5,83.5C 324.037,86.4824 323.704,89.4824 323.5,92.5C 322.517,96.4689 320.517,99.8023 317.5,102.5C 315.734,104.771 313.734,106.937 311.5,109C 310.552,109.483 309.552,109.649 308.5,109.5C 302.227,109.922 301.061,112.588 305,117.5C 309.663,113.925 314.829,111.259 320.5,109.5C 321.695,111.297 323.362,112.297 325.5,112.5C 324.756,109.05 326.09,107.384 329.5,107.5C 329.714,105.856 329.38,104.356 328.5,103C 329.899,102.405 331.232,102.572 332.5,103.5C 333.096,102.284 333.263,100.951 333,99.5C 334.183,98.269 335.349,98.269 336.5,99.5C 336.673,104.712 336.673,110.046 336.5,115.5C 338.38,115.771 339.713,115.104 340.5,113.5C 342.17,113.249 343.67,112.582 345,111.5C 345.301,114.507 345.135,117.507 344.5,120.5C 341.073,123.374 339.906,127.041 341,131.5C 341.626,129.009 342.459,129.009 343.5,131.5C 344.591,129.985 345.924,129.152 347.5,129C 348.523,131.774 348.523,134.607 347.5,137.5C 347.193,140.28 346.193,142.78 344.5,145C 344.743,145.902 345.077,146.735 345.5,147.5C 344.957,147.56 344.624,147.893 344.5,148.5C 347.362,153.422 349.029,158.756 349.5,164.5C 350.496,170.798 350.83,177.132 350.5,183.5C 349.833,188.167 349.167,192.833 348.5,197.5C 346.96,199.838 346.294,202.505 346.5,205.5C 346.5,206.167 346.5,206.833 346.5,207.5C 341.991,219.019 337.657,230.686 333.5,242.5C 332.504,242.586 331.671,242.252 331,241.5C 330.333,235.5 330.333,229.5 331,223.5C 331.557,221.385 332.391,219.385 333.5,217.5C 332.833,216.833 332.167,216.167 331.5,215.5C 331.336,213.604 331.669,211.604 332.5,209.5C 332.253,208.287 331.586,207.62 330.5,207.5C 329.858,200.333 329.692,193 330,185.5C 329.363,183.697 328.197,182.364 326.5,181.5C 328.035,177.344 327.201,173.678 324,170.5C 320.848,173.081 319.348,172.081 319.5,167.5C 323.241,167.413 325.241,165.413 325.5,161.5C 324.689,160.784 324.022,159.95 323.5,159C 324.803,156.256 325.803,153.423 326.5,150.5C 326.649,149.448 326.483,148.448 326,147.5C 308.678,162.497 288.511,169.33 265.5,168C 251.58,164.687 237.58,161.687 223.5,159C 215.876,157.904 208.209,157.238 200.5,157C 190.779,151.808 181.113,146.642 171.5,141.5C 170.799,137.587 170.799,133.587 171.5,129.5C 173.288,129.785 174.955,129.452 176.5,128.5C 174.257,127.526 171.924,127.192 169.5,127.5C 170.7,124.167 170.7,120.833 169.5,117.5C 170.741,115.063 171.741,112.563 172.5,110C 172.043,109.586 171.709,109.086 171.5,108.5C 173.88,105.196 176.88,102.696 180.5,101C 181.252,100.329 181.586,99.4959 181.5,98.5C 182.167,97.8333 182.833,97.1667 183.5,96.5C 186.73,95.192 190.064,94.192 193.5,93.5C 196.152,93.5905 198.485,92.9238 200.5,91.5C 204.4,90.5701 208.4,90.2367 212.5,90.5C 219.504,90.2269 226.504,89.8936 233.5,89.5C 238.627,89.7083 243.627,89.0416 248.5,87.5C 249.931,87.9766 251.264,88.6433 252.5,89.5C 251.096,91.922 249.263,92.5887 247,91.5C 246.51,92.7932 246.343,94.1266 246.5,95.5C 246.389,96.1174 246.056,96.6174 245.5,97C 247.833,97.6667 250.167,97.6667 252.5,97C 256.44,95.9294 260.106,94.4294 263.5,92.5C 264.167,92.5 264.833,92.5 265.5,92.5C 269.836,92.1631 273.503,90.4965 276.5,87.5C 277.514,86.3263 278.847,85.6596 280.5,85.5C 282.927,85.477 285.26,84.977 287.5,84C 287.167,83.6667 286.833,83.3333 286.5,83C 287.851,81.3829 289.518,80.2162 291.5,79.5C 292.127,78.5832 292.461,77.5832 292.5,76.5 Z"/></g>
<g><path style="opacity:1" fill="#362209" d="M 276.5,87.5 C 273.503,90.4965 269.836,92.1631 265.5,92.5C 267.5,91.1667 269.5,89.8333 271.5,88.5C 273.216,88.3713 274.883,88.038 276.5,87.5 Z"/></g>
<g><path style="opacity:1" fill="#5f3c13" d="M 200.5,91.5 C 198.485,92.9238 196.152,93.5905 193.5,93.5C 195.515,92.0762 197.848,91.4095 200.5,91.5 Z"/></g>
<g><path style="opacity:1" fill="#b78d4f" d="M 291.5,90.5 C 291.5,91.5 291.5,92.5 291.5,93.5C 292.5,93.5 293.5,93.5 294.5,93.5C 292.965,94.7879 291.299,94.7879 289.5,93.5C 289.942,92.2613 290.609,91.2613 291.5,90.5 Z"/></g>
<g><path style="opacity:1" fill="#d39e48" d="M 259.5,85.5 C 257.934,88.4123 255.934,91.079 253.5,93.5C 254.167,93.8333 254.833,94.1667 255.5,94.5C 257.972,93.0083 260.639,92.3416 263.5,92.5C 260.106,94.4294 256.44,95.9294 252.5,97C 250.167,97.6667 247.833,97.6667 245.5,97C 246.056,96.6174 246.389,96.1174 246.5,95.5C 251.385,92.9567 255.718,89.6234 259.5,85.5 Z"/></g>
<g><path style="opacity:1" fill="#271a08" d="M 291.5,90.5 C 290.609,91.2613 289.942,92.2613 289.5,93.5C 291.299,94.7879 292.965,94.7879 294.5,93.5C 297.789,92.6261 301.123,91.9595 304.5,91.5C 303.791,92.404 302.791,92.7373 301.5,92.5C 301.721,96.7954 300.388,97.4621 297.5,94.5C 295.5,95.1667 293.5,95.8333 291.5,96.5C 289.293,96.119 287.96,94.7857 287.5,92.5C 290.37,90.352 291.037,87.6853 289.5,84.5C 290.631,83.3961 291.465,83.7295 292,85.5C 292.837,83.1617 293.67,80.8284 294.5,78.5C 294.253,77.2867 293.586,76.62 292.5,76.5C 292.5,76.1667 292.5,75.8333 292.5,75.5C 294.017,75.4894 295.184,74.8228 296,73.5C 295.84,79.4854 294.34,85.1521 291.5,90.5 Z"/></g>
<g><path style="opacity:0.992" fill="#f5c271" d="M 420.5,87.5 C 423.2,89.8649 425.533,92.5315 427.5,95.5C 423.015,94.6834 420.682,92.0167 420.5,87.5 Z"/></g>
<g><path style="opacity:0.631" fill="#f1ca81" d="M 74.5,91.5 C 71.1667,95.8333 67.8333,100.167 64.5,104.5C 63.8333,104.833 63.1667,105.167 62.5,105.5C 65.4356,99.8995 69.4356,95.2328 74.5,91.5 Z"/></g>
<g><path style="opacity:1" fill="#dca544" d="M 342.5,110.5 C 341.833,111.5 341.167,112.5 340.5,113.5C 339.504,113.414 338.671,113.748 338,114.5C 337.505,111.469 337.671,108.469 338.5,105.5C 339.811,101.317 339.811,96.9838 338.5,92.5C 337.893,92.6236 337.56,92.9569 337.5,93.5C 336.527,95.1392 335.194,96.4726 333.5,97.5C 333.5,96.8333 333.5,96.1667 333.5,95.5C 334.445,92.0132 336.778,90.6799 340.5,91.5C 340.81,97.7576 340.476,103.924 339.5,110C 340.448,110.483 341.448,110.649 342.5,110.5 Z"/></g>
<g><path style="opacity:0.447" fill="#f2cb87" d="M 427.5,95.5 C 429.587,96.5846 430.92,98.2512 431.5,100.5C 429.413,99.4154 428.08,97.7488 427.5,95.5 Z"/></g>
<g><path style="opacity:1" fill="#634218" d="M 337.5,93.5 C 337.56,92.9569 337.893,92.6236 338.5,92.5C 339.811,96.9838 339.811,101.317 338.5,105.5C 338.817,101.298 338.483,97.2984 337.5,93.5 Z"/></g>
<g><path style="opacity:1" fill="#eca93a" d="M 327.5,82.5 C 327.542,86.9691 326.875,91.3025 325.5,95.5C 328.062,96.3715 330.728,96.3715 333.5,95.5C 333.5,96.1667 333.5,96.8333 333.5,97.5C 329.442,100.89 325.109,103.89 320.5,106.5C 319.5,106.5 318.5,106.5 317.5,106.5C 317.5,105.167 317.5,103.833 317.5,102.5C 320.517,99.8023 322.517,96.4689 323.5,92.5C 325.428,89.3783 326.761,86.0449 327.5,82.5 Z"/></g>
<g><path style="opacity:0.749" fill="#f1cd87" d="M 431.5,100.5 C 433.587,101.585 434.92,103.251 435.5,105.5C 433.413,104.415 432.08,102.749 431.5,100.5 Z"/></g>
<g><path style="opacity:1" fill="#1e170e" d="M 337.5,93.5 C 338.483,97.2984 338.817,101.298 338.5,105.5C 337.671,108.469 337.505,111.469 338,114.5C 338.671,113.748 339.504,113.414 340.5,113.5C 339.713,115.104 338.38,115.771 336.5,115.5C 336.673,110.046 336.673,104.712 336.5,99.5C 335.349,98.269 334.183,98.269 333,99.5C 333.263,100.951 333.096,102.284 332.5,103.5C 331.232,102.572 329.899,102.405 328.5,103C 329.38,104.356 329.714,105.856 329.5,107.5C 326.09,107.384 324.756,109.05 325.5,112.5C 323.362,112.297 321.695,111.297 320.5,109.5C 314.829,111.259 309.663,113.925 305,117.5C 301.061,112.588 302.227,109.922 308.5,109.5C 308.47,110.497 308.97,111.164 310,111.5C 314.086,110.878 317.586,109.211 320.5,106.5C 325.109,103.89 329.442,100.89 333.5,97.5C 335.194,96.4726 336.527,95.1392 337.5,93.5 Z"/></g>
<g><path style="opacity:1" fill="#c49547" d="M 317.5,102.5 C 317.5,103.833 317.5,105.167 317.5,106.5C 318.5,106.5 319.5,106.5 320.5,106.5C 317.586,109.211 314.086,110.878 310,111.5C 308.97,111.164 308.47,110.497 308.5,109.5C 309.552,109.649 310.552,109.483 311.5,109C 313.734,106.937 315.734,104.771 317.5,102.5 Z"/></g>
<g><path style="opacity:0.404" fill="#f5d097" d="M 435.5,105.5 C 437.914,106.911 439.581,108.911 440.5,111.5C 438.086,110.089 436.419,108.089 435.5,105.5 Z"/></g>
<g><path style="opacity:0.482" fill="#f0d190" d="M 62.5,105.5 C 61.2195,108.447 59.2195,110.781 56.5,112.5C 57.8103,109.527 59.8103,107.193 62.5,105.5 Z"/></g>
<g><path style="opacity:1" fill="#f3b84f" d="M 64.5,104.5 C 62.6056,108.405 60.2722,112.072 57.5,115.5C 56.1149,117.883 54.1149,119.55 51.5,120.5C 52.6693,117.489 54.336,114.822 56.5,112.5C 59.2195,110.781 61.2195,108.447 62.5,105.5C 63.1667,105.167 63.8333,104.833 64.5,104.5 Z"/></g>
<g><path style="opacity:1" fill="#e1a53f" d="M 347.5,115.5 C 348.345,112.174 348.845,108.84 349,105.5C 347.242,107.765 345.075,109.432 342.5,110.5C 342.34,108.801 342.506,107.134 343,105.5C 343.308,106.308 343.808,106.975 344.5,107.5C 344.94,106.302 345.273,105.135 345.5,104C 347.134,103.506 348.801,103.34 350.5,103.5C 351.114,108.032 350.114,112.032 347.5,115.5 Z"/></g>
<g><path style="opacity:1" fill="#2b1a09" d="M 347.5,115.5 C 347.5,115.833 347.5,116.167 347.5,116.5C 346.857,118.076 345.857,119.41 344.5,120.5C 345.135,117.507 345.301,114.507 345,111.5C 343.67,112.582 342.17,113.249 340.5,113.5C 341.167,112.5 341.833,111.5 342.5,110.5C 345.075,109.432 347.242,107.765 349,105.5C 348.845,108.84 348.345,112.174 347.5,115.5 Z"/></g>
<g><path style="opacity:1" fill="#f2c16d" d="M 444.5,117.5 C 446.935,119.271 448.602,121.604 449.5,124.5C 445.933,123.544 444.266,121.21 444.5,117.5 Z"/></g>
<g><path style="opacity:1" fill="#d29d48" d="M 347.5,116.5 C 347.753,118.827 347.086,120.827 345.5,122.5C 346.325,123.386 347.325,123.719 348.5,123.5C 346.982,126.75 344.649,128.084 341.5,127.5C 342.788,125.261 343.788,122.928 344.5,120.5C 345.857,119.41 346.857,118.076 347.5,116.5 Z"/></g>
<g><path style="opacity:1" fill="#7f5b25" d="M 162.5,121.5 C 162.833,121.5 163.167,121.5 163.5,121.5C 163.5,123.167 163.5,124.833 163.5,126.5C 162.833,128.5 162.167,130.5 161.5,132.5C 161.423,128.785 161.756,125.119 162.5,121.5 Z"/></g>
<g><path style="opacity:1" fill="#f5b756" d="M 449.5,124.5 C 453.921,130.334 457.588,136.668 460.5,143.5C 458.716,142.044 456.716,141.044 454.5,140.5C 454.799,138.396 454.466,136.396 453.5,134.5C 448.827,132.459 447.493,129.125 449.5,124.5 Z"/></g>
<g><path style="opacity:0.945" fill="#efbf6b" d="M 51.5,120.5 C 50.3116,125.56 47.6449,129.56 43.5,132.5C 45.4338,128.873 47.4338,125.206 49.5,121.5C 49.9569,120.702 50.6236,120.369 51.5,120.5 Z"/></g>
<g><path style="opacity:1" fill="#24190c" d="M 344.5,120.5 C 343.788,122.928 342.788,125.261 341.5,127.5C 344.649,128.084 346.982,126.75 348.5,123.5C 348.833,123.5 349.167,123.5 349.5,123.5C 350.693,123.97 351.36,124.97 351.5,126.5C 350.611,130.432 349.277,134.099 347.5,137.5C 348.523,134.607 348.523,131.774 347.5,129C 345.924,129.152 344.591,129.985 343.5,131.5C 342.459,129.009 341.626,129.009 341,131.5C 339.906,127.041 341.073,123.374 344.5,120.5 Z"/></g>
<g><path style="opacity:1" fill="#e9ad42" d="M 162.5,121.5 C 161.756,125.119 161.423,128.785 161.5,132.5C 160.459,137.227 157.793,140.894 153.5,143.5C 153.5,141.833 153.5,140.167 153.5,138.5C 156.35,137.828 158.517,136.161 160,133.5C 160.333,129.833 160.667,126.167 161,122.5C 161.383,121.944 161.883,121.611 162.5,121.5 Z"/></g>
<g><path style="opacity:1" fill="#2d1b0b" d="M 163.5,126.5 C 163.5,128.5 163.5,130.5 163.5,132.5C 163.856,135.564 163.023,138.231 161,140.5C 158.287,142.72 155.454,144.72 152.5,146.5C 152.557,145.391 152.89,144.391 153.5,143.5C 157.793,140.894 160.459,137.227 161.5,132.5C 162.167,130.5 162.833,128.5 163.5,126.5 Z"/></g>
<g><path style="opacity:1" fill="#141314" d="M 163.5,132.5 C 164.496,132.414 165.329,132.748 166,133.5C 166.497,136.146 166.664,138.813 166.5,141.5C 164.712,141.215 163.045,141.548 161.5,142.5C 164.086,143.48 166.753,143.813 169.5,143.5C 169.215,145.288 169.548,146.955 170.5,148.5C 171.891,147.355 173.224,147.355 174.5,148.5C 176.304,151.14 178.304,153.64 180.5,156C 180.333,156.5 180.167,157 180,157.5C 177.156,156.692 174.323,157.026 171.5,158.5C 174.588,159.079 177.255,160.413 179.5,162.5C 178.726,163.711 177.893,163.711 177,162.5C 175.171,164.73 175.338,166.897 177.5,169C 175.079,173.534 174.079,178.367 174.5,183.5C 172.914,185.081 171.914,187.081 171.5,189.5C 172.283,194.447 172.783,199.447 173,204.5C 173.375,207 174.208,209.333 175.5,211.5C 173.587,212.051 171.587,212.218 169.5,212C 168.209,213.292 168.209,214.458 169.5,215.5C 169.5,216.167 169.5,216.833 169.5,217.5C 168.833,226.009 168.167,234.676 167.5,243.5C 165.894,241.488 164.727,239.155 164,236.5C 163.595,232.787 163.595,229.121 164,225.5C 162.028,223.768 159.861,222.435 157.5,221.5C 156.596,220.791 156.263,219.791 156.5,218.5C 157.429,217.685 158.429,216.852 159.5,216C 158.421,215.044 157.255,214.211 156,213.5C 154.348,208.901 153.348,204.235 153,199.5C 154.881,200.354 156.714,200.021 158.5,198.5C 160.445,201.296 161.945,204.296 163,207.5C 163.667,203.5 163.667,199.5 163,195.5C 162.667,195.167 162.333,194.833 162,194.5C 161.692,195.308 161.192,195.975 160.5,196.5C 159.281,195.737 158.281,194.737 157.5,193.5C 156.5,194.167 155.5,194.833 154.5,195.5C 153.833,192.5 153.167,189.5 152.5,186.5C 151.749,187.376 151.249,188.376 151,189.5C 150.027,187.608 149.36,185.608 149,183.5C 148.333,175.833 148.333,168.167 149,160.5C 150.795,155.988 151.961,151.321 152.5,146.5C 155.454,144.72 158.287,142.72 161,140.5C 163.023,138.231 163.856,135.564 163.5,132.5 Z"/></g>
<g><path style="opacity:0.553" fill="#efc581" d="M 37.5,143.5 C 37.8799,145.698 37.2132,147.365 35.5,148.5C 35.1201,146.302 35.7868,144.635 37.5,143.5 Z"/></g>
<g><path style="opacity:0.698" fill="#edc57b" d="M 460.5,143.5 C 462.065,145.509 463.065,147.843 463.5,150.5C 461.166,148.824 460.166,146.491 460.5,143.5 Z"/></g>
<g><path style="opacity:1" fill="#302005" d="M 345.5,147.5 C 351.271,158.949 352.938,170.949 350.5,183.5C 350.83,177.132 350.496,170.798 349.5,164.5C 349.029,158.756 347.362,153.422 344.5,148.5C 344.624,147.893 344.957,147.56 345.5,147.5 Z"/></g>
<g><path style="opacity:0.867" fill="#f0c77a" d="M 35.5,148.5 C 35.7841,151.857 34.4507,154.191 31.5,155.5C 32.0787,152.669 33.412,150.336 35.5,148.5 Z"/></g>
<g><path style="opacity:1" fill="#f8b346" d="M 43.5,132.5 C 43.196,135.522 42.696,138.522 42,141.5C 41.6667,141.167 41.3333,140.833 41,140.5C 38.5516,145.184 37.385,150.184 37.5,155.5C 34.9641,156.037 32.9641,157.37 31.5,159.5C 31.5,158.5 31.5,157.5 31.5,156.5C 31.5,156.167 31.5,155.833 31.5,155.5C 34.4507,154.191 35.7841,151.857 35.5,148.5C 37.2132,147.365 37.8799,145.698 37.5,143.5C 38.7532,139.389 40.7532,135.723 43.5,132.5 Z"/></g>
<g><path style="opacity:0.839" fill="#edc471" d="M 463.5,150.5 C 466.26,154.429 468.26,158.762 469.5,163.5C 466.349,159.723 464.349,155.389 463.5,150.5 Z"/></g>
<g><path style="opacity:1" fill="#191712" d="M 181.5,98.5 C 181.586,99.4959 181.252,100.329 180.5,101C 176.88,102.696 173.88,105.196 171.5,108.5C 171.709,109.086 172.043,109.586 172.5,110C 171.741,112.563 170.741,115.063 169.5,117.5C 170.7,120.833 170.7,124.167 169.5,127.5C 171.924,127.192 174.257,127.526 176.5,128.5C 174.955,129.452 173.288,129.785 171.5,129.5C 170.799,133.587 170.799,137.587 171.5,141.5C 177.246,147.918 183.246,154.251 189.5,160.5C 185.457,162.543 182.457,165.543 180.5,169.5C 177.134,173.605 175.134,178.272 174.5,183.5C 174.079,178.367 175.079,173.534 177.5,169C 175.338,166.897 175.171,164.73 177,162.5C 177.893,163.711 178.726,163.711 179.5,162.5C 177.255,160.413 174.588,159.079 171.5,158.5C 174.323,157.026 177.156,156.692 180,157.5C 180.167,157 180.333,156.5 180.5,156C 178.304,153.64 176.304,151.14 174.5,148.5C 173.224,147.355 171.891,147.355 170.5,148.5C 169.548,146.955 169.215,145.288 169.5,143.5C 166.753,143.813 164.086,143.48 161.5,142.5C 163.045,141.548 164.712,141.215 166.5,141.5C 166.664,138.813 166.497,136.146 166,133.5C 165.329,132.748 164.496,132.414 163.5,132.5C 163.5,130.5 163.5,128.5 163.5,126.5C 163.5,124.833 163.5,123.167 163.5,121.5C 165.942,110.902 171.942,103.236 181.5,98.5 Z"/></g>
<g><path style="opacity:1" fill="#f2d7a7" d="M 171.5,141.5 C 181.113,146.642 190.779,151.808 200.5,157C 208.209,157.238 215.876,157.904 223.5,159C 237.58,161.687 251.58,164.687 265.5,168C 288.511,169.33 308.678,162.497 326,147.5C 326.483,148.448 326.649,149.448 326.5,150.5C 322.972,155.705 319.306,160.871 315.5,166C 318.039,169.574 320.206,173.407 322,177.5C 323.297,186.114 323.797,194.781 323.5,203.5C 320.482,203.296 317.482,202.963 314.5,202.5C 307.385,201.065 300.052,200.398 292.5,200.5C 285.928,200.32 279.595,200.986 273.5,202.5C 268.83,202.511 264.497,203.511 260.5,205.5C 258.883,206.038 257.216,206.371 255.5,206.5C 249.79,207.725 245.29,206.059 242,201.5C 239.772,203.113 237.272,203.78 234.5,203.5C 234.5,202.5 234.5,201.5 234.5,200.5C 228.833,200.5 223.167,200.5 217.5,200.5C 216.833,200.5 216.167,200.5 215.5,200.5C 202.264,199.051 188.931,199.384 175.5,201.5C 175.978,193.837 176.478,186.17 177,178.5C 177.691,180.891 178.691,180.891 180,178.5C 180.498,175.518 180.665,172.518 180.5,169.5C 182.457,165.543 185.457,162.543 189.5,160.5C 183.246,154.251 177.246,147.918 171.5,141.5 Z"/></g>
<g><path style="opacity:0.914" fill="#f1c170" d="M 469.5,163.5 C 471.601,166.797 472.935,170.463 473.5,174.5C 472.883,174.389 472.383,174.056 472,173.5C 470.857,170.223 470.023,166.89 469.5,163.5 Z"/></g>
<g><path style="opacity:1" fill="#f2bd61" d="M 31.5,156.5 C 31.5,157.5 31.5,158.5 31.5,159.5C 29.7258,163.569 28.3925,167.903 27.5,172.5C 25.152,177.245 22.8187,181.911 20.5,186.5C 22.6489,175.878 26.3155,165.878 31.5,156.5 Z"/></g>
<g><path style="opacity:1" fill="#e4a949" d="M 150.5,148.5 C 149.657,152.873 148.657,157.207 147.5,161.5C 145.565,174.412 146.565,187.079 150.5,199.5C 150.882,203.978 151.882,208.311 153.5,212.5C 149.958,211.325 146.291,210.659 142.5,210.5C 135.775,213.706 133.608,219.039 136,226.5C 137.831,228.582 138.998,230.915 139.5,233.5C 140.925,234.922 141.925,236.589 142.5,238.5C 138.646,235.803 136.146,232.136 135,227.5C 131.836,215.516 136.336,208.849 148.5,207.5C 149.195,200.474 148.028,193.807 145,187.5C 144.234,178.309 144.401,169.142 145.5,160C 147.206,155.953 148.872,152.12 150.5,148.5 Z"/></g>
<g><path style="opacity:1" fill="#3b2506" d="M 147.5,161.5 C 147.334,169.174 147.5,176.841 148,184.5C 149.45,189.399 150.284,194.399 150.5,199.5C 146.565,187.079 145.565,174.412 147.5,161.5 Z"/></g>
<g><path style="opacity:0.706" fill="#f5cc90" d="M 473.5,174.5 C 475.074,176.102 475.741,178.102 475.5,180.5C 473.926,178.898 473.259,176.898 473.5,174.5 Z"/></g>
<g><path style="opacity:1" fill="#db9f3f" d="M 348.5,197.5 C 349.167,192.833 349.833,188.167 350.5,183.5C 352.938,170.949 351.271,158.949 345.5,147.5C 345.077,146.735 344.743,145.902 344.5,145C 346.193,142.78 347.193,140.28 347.5,137.5C 349.277,134.099 350.611,130.432 351.5,126.5C 351.36,124.97 350.693,123.97 349.5,123.5C 349.47,122.503 349.97,121.836 351,121.5C 352.15,122.424 353.15,122.424 354,121.5C 354.167,122.167 354.333,122.833 354.5,123.5C 353.384,128.271 352.051,132.938 350.5,137.5C 350.709,138.086 351.043,138.586 351.5,139C 349.939,139.318 348.772,140.151 348,141.5C 347.699,144.507 347.865,147.507 348.5,150.5C 349.5,150.5 350.5,150.5 351.5,150.5C 352.473,163.821 352.639,177.154 352,190.5C 351.102,193.069 349.935,195.402 348.5,197.5 Z"/></g>
<g><path style="opacity:1" fill="#18140e" d="M 152.5,146.5 C 151.961,151.321 150.795,155.988 149,160.5C 148.333,168.167 148.333,175.833 149,183.5C 149.36,185.608 150.027,187.608 151,189.5C 151.249,188.376 151.749,187.376 152.5,186.5C 153.167,189.5 153.833,192.5 154.5,195.5C 155.5,194.833 156.5,194.167 157.5,193.5C 158.281,194.737 159.281,195.737 160.5,196.5C 161.192,195.975 161.692,195.308 162,194.5C 162.333,194.833 162.667,195.167 163,195.5C 163.667,199.5 163.667,203.5 163,207.5C 161.945,204.296 160.445,201.296 158.5,198.5C 156.714,200.021 154.881,200.354 153,199.5C 153.348,204.235 154.348,208.901 156,213.5C 157.255,214.211 158.421,215.044 159.5,216C 158.429,216.852 157.429,217.685 156.5,218.5C 155.514,216.574 154.514,214.574 153.5,212.5C 151.882,208.311 150.882,203.978 150.5,199.5C 150.284,194.399 149.45,189.399 148,184.5C 147.5,176.841 147.334,169.174 147.5,161.5C 148.657,157.207 149.657,152.873 150.5,148.5C 151.167,147.833 151.833,147.167 152.5,146.5 Z"/></g>
<g><path style="opacity:0.902" fill="#f1c472" d="M 475.5,180.5 C 478.253,186.487 480.253,192.821 481.5,199.5C 480.034,198.653 479.2,197.32 479,195.5C 477.358,190.598 476.191,185.598 475.5,180.5 Z"/></g>
<g><path style="opacity:1" fill="#dbc9a5" d="M 180.5,169.5 C 180.665,172.518 180.498,175.518 180,178.5C 178.691,180.891 177.691,180.891 177,178.5C 176.478,186.17 175.978,193.837 175.5,201.5C 188.931,199.384 202.264,199.051 215.5,200.5C 201.69,199.977 188.024,200.977 174.5,203.5C 174.5,196.833 174.5,190.167 174.5,183.5C 175.134,178.272 177.134,173.605 180.5,169.5 Z"/></g>
<g><path style="opacity:1" fill="#171613" d="M 326.5,150.5 C 325.803,153.423 324.803,156.256 323.5,159C 324.022,159.95 324.689,160.784 325.5,161.5C 325.241,165.413 323.241,167.413 319.5,167.5C 319.348,172.081 320.848,173.081 324,170.5C 327.201,173.678 328.035,177.344 326.5,181.5C 328.197,182.364 329.363,183.697 330,185.5C 329.692,193 329.858,200.333 330.5,207.5C 330.082,208.222 329.416,208.722 328.5,209C 329.641,209.741 329.641,210.575 328.5,211.5C 324.907,211.742 322.241,213.409 320.5,216.5C 318.282,214.349 316.948,211.682 316.5,208.5C 315.675,207.614 314.675,207.281 313.5,207.5C 313.047,206.542 312.381,205.708 311.5,205C 308.325,205.053 305.658,204.22 303.5,202.5C 307.167,202.5 310.833,202.5 314.5,202.5C 317.482,202.963 320.482,203.296 323.5,203.5C 323.797,194.781 323.297,186.114 322,177.5C 320.206,173.407 318.039,169.574 315.5,166C 319.306,160.871 322.972,155.705 326.5,150.5 Z"/></g>
<g><path style="opacity:1" fill="#dac59f" d="M 217.5,200.5 C 223.167,200.5 228.833,200.5 234.5,200.5C 234.5,201.5 234.5,202.5 234.5,203.5C 237.272,203.78 239.772,203.113 242,201.5C 245.29,206.059 249.79,207.725 255.5,206.5C 252.481,208.337 249.148,208.837 245.5,208C 236.297,204.535 226.964,202.035 217.5,200.5 Z"/></g>
<g><path style="opacity:1" fill="#372e1f" d="M 314.5,202.5 C 310.833,202.5 307.167,202.5 303.5,202.5C 293.659,201.395 283.659,201.395 273.5,202.5C 279.595,200.986 285.928,200.32 292.5,200.5C 300.052,200.398 307.385,201.065 314.5,202.5 Z"/></g>
<g><path style="opacity:1" fill="#6d4d14" d="M 348.5,197.5 C 348.435,200.428 347.768,203.095 346.5,205.5C 346.294,202.505 346.96,199.838 348.5,197.5 Z"/></g>
<g><path style="opacity:1" fill="#211c14" d="M 303.5,202.5 C 305.658,204.22 308.325,205.053 311.5,205C 312.381,205.708 313.047,206.542 313.5,207.5C 314.675,207.281 315.675,207.614 316.5,208.5C 316.948,211.682 318.282,214.349 320.5,216.5C 322.241,213.409 324.907,211.742 328.5,211.5C 329.641,210.575 329.641,209.741 328.5,209C 329.416,208.722 330.082,208.222 330.5,207.5C 331.586,207.62 332.253,208.287 332.5,209.5C 331.669,211.604 331.336,213.604 331.5,215.5C 332.167,216.167 332.833,216.833 333.5,217.5C 332.391,219.385 331.557,221.385 331,223.5C 330.333,229.5 330.333,235.5 331,241.5C 331.671,242.252 332.504,242.586 333.5,242.5C 331.888,246.058 330.555,249.725 329.5,253.5C 328.596,252.791 328.263,251.791 328.5,250.5C 328.5,248.167 328.5,245.833 328.5,243.5C 329.767,233.974 329.767,224.308 328.5,214.5C 323.611,215.4 321.277,218.4 321.5,223.5C 319.252,229.07 317.085,234.737 315,240.5C 311.457,244.574 306.957,246.741 301.5,247C 292.167,249 282.833,249 273.5,247C 268.09,245.257 264.256,241.757 262,236.5C 260.434,231.944 258.601,227.61 256.5,223.5C 256.5,222.5 256.5,221.5 256.5,220.5C 257.5,220.5 258.5,220.5 259.5,220.5C 259.335,217.15 259.502,213.817 260,210.5C 261.227,208.274 263.061,206.774 265.5,206C 263.866,205.506 262.199,205.34 260.5,205.5C 264.497,203.511 268.83,202.511 273.5,202.5C 283.659,201.395 293.659,201.395 303.5,202.5 Z"/></g>
<g><path style="opacity:1" fill="#181612" d="M 174.5,183.5 C 174.5,190.167 174.5,196.833 174.5,203.5C 188.024,200.977 201.69,199.977 215.5,200.5C 216.167,200.5 216.833,200.5 217.5,200.5C 226.964,202.035 236.297,204.535 245.5,208C 249.148,208.837 252.481,208.337 255.5,206.5C 257.216,206.371 258.883,206.038 260.5,205.5C 262.199,205.34 263.866,205.506 265.5,206C 263.061,206.774 261.227,208.274 260,210.5C 259.502,213.817 259.335,217.15 259.5,220.5C 258.5,220.5 257.5,220.5 256.5,220.5C 253.925,215.485 249.925,214.151 244.5,216.5C 243.504,216.414 242.671,216.748 242,217.5C 241.71,219.044 241.044,220.377 240,221.5C 240.128,218.514 240.128,215.514 240,212.5C 239.329,211.748 238.496,211.414 237.5,211.5C 236.657,209.827 235.324,208.66 233.5,208C 220.339,204.785 207.005,203.785 193.5,205C 190.708,205.542 188.042,206.376 185.5,207.5C 184.5,207.5 183.5,207.5 182.5,207.5C 181.975,213.168 181.309,218.835 180.5,224.5C 179.735,223.388 178.735,222.721 177.5,222.5C 177.445,219.386 176.112,217.052 173.5,215.5C 172.167,214.167 170.833,214.167 169.5,215.5C 168.209,214.458 168.209,213.292 169.5,212C 171.587,212.218 173.587,212.051 175.5,211.5C 174.208,209.333 173.375,207 173,204.5C 172.783,199.447 172.283,194.447 171.5,189.5C 171.914,187.081 172.914,185.081 174.5,183.5 Z"/></g>
<g><path style="opacity:1" fill="#f0d5a7" d="M 237.5,211.5 C 238.818,220.737 236.985,229.403 232,237.5C 226.995,242.743 220.829,245.076 213.5,244.5C 208.13,244.608 202.797,244.275 197.5,243.5C 190.112,241.797 185.612,237.13 184,229.5C 181.525,221.815 182.025,214.482 185.5,207.5C 188.042,206.376 190.708,205.542 193.5,205C 207.005,203.785 220.339,204.785 233.5,208C 235.324,208.66 236.657,209.827 237.5,211.5 Z"/></g>
<g><path style="opacity:1" fill="#f0d5a6" d="M 313.5,207.5 C 316.021,210.43 317.021,213.93 316.5,218C 316.837,223.144 315.837,227.978 313.5,232.5C 311.018,233.663 309.684,235.663 309.5,238.5C 308.167,238.5 306.833,238.5 305.5,238.5C 305.5,239.5 305.5,240.5 305.5,241.5C 298.992,241.45 292.659,242.117 286.5,243.5C 283.833,243.333 281.167,243.167 278.5,243C 275.811,241.076 272.811,239.909 269.5,239.5C 267.496,238.327 265.996,236.66 265,234.5C 263.865,230.095 262.532,225.762 261,221.5C 259.574,216.243 260.741,211.743 264.5,208C 280.763,203.524 297.097,203.357 313.5,207.5 Z"/></g>
<g><path style="opacity:0.569" fill="#f2cc82" d="M 481.5,201.5 C 483.578,210.256 484.911,219.256 485.5,228.5C 483.431,219.741 482.098,210.741 481.5,201.5 Z"/></g>
<g><path style="opacity:1" fill="#efc482" d="M 142.5,210.5 C 140.873,212.63 139.04,214.63 137,216.5C 135.857,220.61 136.523,224.276 139,227.5C 139.495,229.473 139.662,231.473 139.5,233.5C 138.998,230.915 137.831,228.582 136,226.5C 133.608,219.039 135.775,213.706 142.5,210.5 Z"/></g>
<g><path style="opacity:1" fill="#d8c5a3" d="M 328.5,243.5 C 328.863,235.429 328.363,227.429 327,219.5C 326.586,219.043 326.086,218.709 325.5,218.5C 324.113,220.21 322.779,221.877 321.5,223.5C 321.277,218.4 323.611,215.4 328.5,214.5C 329.767,224.308 329.767,233.974 328.5,243.5 Z"/></g>
<g><path style="opacity:1" fill="#93876a" d="M 173.5,215.5 C 172.5,215.5 171.5,215.5 170.5,215.5C 170.806,218.385 170.473,221.052 169.5,223.5C 169.5,221.5 169.5,219.5 169.5,217.5C 169.5,216.833 169.5,216.167 169.5,215.5C 170.833,214.167 172.167,214.167 173.5,215.5 Z"/></g>
<g><path style="opacity:1" fill="#e3c698" d="M 346.5,207.5 C 346.5,208.5 346.5,209.5 346.5,210.5C 350.15,209.325 353.817,209.325 357.5,210.5C 363.611,217.596 364.111,225.263 359,233.5C 357.169,236.855 354.669,239.522 351.5,241.5C 349.606,242.048 347.94,243.048 346.5,244.5C 344.565,247.938 342.065,250.938 339,253.5C 337.872,255.345 337.372,257.345 337.5,259.5C 336.738,261.262 335.404,262.262 333.5,262.5C 332.167,262.5 330.833,262.5 329.5,262.5C 329.169,260.678 328.502,259.011 327.5,257.5C 328.674,256.486 329.34,255.153 329.5,253.5C 330.555,249.725 331.888,246.058 333.5,242.5C 337.657,230.686 341.991,219.019 346.5,207.5 Z"/></g>
<g><path style="opacity:1" fill="#1f1a13" d="M 169.5,217.5 C 169.5,219.5 169.5,221.5 169.5,223.5C 169.5,230.167 169.5,236.833 169.5,243.5C 169.813,247.042 169.479,250.375 168.5,253.5C 164.817,242.809 161.151,232.143 157.5,221.5C 159.861,222.435 162.028,223.768 164,225.5C 163.595,229.121 163.595,232.787 164,236.5C 164.727,239.155 165.894,241.488 167.5,243.5C 168.167,234.676 168.833,226.009 169.5,217.5 Z"/></g>
<g><path style="opacity:1" fill="#f3d7a7" d="M 173.5,215.5 C 176.112,217.052 177.445,219.386 177.5,222.5C 179.231,228.647 181.398,234.647 184,240.5C 186.559,243.531 189.726,245.698 193.5,247C 204.907,249.138 216.241,248.804 227.5,246C 232.405,242.928 236.072,238.761 238.5,233.5C 240.075,231.475 241.908,229.475 244,227.5C 244.521,224.081 245.355,220.748 246.5,217.5C 247.333,217.167 248.167,216.833 249,216.5C 250.989,218.181 253.156,219.514 255.5,220.5C 255.263,221.791 255.596,222.791 256.5,223.5C 258.601,227.61 260.434,231.944 262,236.5C 264.256,241.757 268.09,245.257 273.5,247C 282.833,249 292.167,249 301.5,247C 306.957,246.741 311.457,244.574 315,240.5C 317.085,234.737 319.252,229.07 321.5,223.5C 322.779,221.877 324.113,220.21 325.5,218.5C 326.086,218.709 326.586,219.043 327,219.5C 328.363,227.429 328.863,235.429 328.5,243.5C 328.5,245.833 328.5,248.167 328.5,250.5C 327.532,252.607 327.198,254.941 327.5,257.5C 328.502,259.011 329.169,260.678 329.5,262.5C 330.833,262.5 332.167,262.5 333.5,262.5C 331.369,263.314 329.036,263.814 326.5,264C 325.723,266.628 324.723,269.128 323.5,271.5C 322.503,271.47 321.836,271.97 321.5,273C 319.616,277.368 318.116,281.868 317,286.5C 313.055,291.393 309.888,296.727 307.5,302.5C 304.846,305.165 302.513,308.165 300.5,311.5C 299.833,311.5 299.5,311.833 299.5,312.5C 290.38,325.781 278.38,335.615 263.5,342C 249.448,345.355 236.115,343.689 223.5,337C 213.665,329.665 204.998,321.165 197.5,311.5C 196.243,308.573 194.243,306.239 191.5,304.5C 191.657,303.127 191.49,301.793 191,300.5C 184.513,292.851 180.013,284.185 177.5,274.5C 176.344,270.849 175.178,267.182 174,263.5C 173.329,262.748 172.496,262.414 171.5,262.5C 169.599,261.065 169.266,259.398 170.5,257.5C 170.819,252.637 170.486,247.97 169.5,243.5C 169.5,236.833 169.5,230.167 169.5,223.5C 170.473,221.052 170.806,218.385 170.5,215.5C 171.5,215.5 172.5,215.5 173.5,215.5 Z"/></g>
<g><path style="opacity:1" fill="#dbc6a2" d="M 256.5,220.5 C 256.5,221.5 256.5,222.5 256.5,223.5C 255.596,222.791 255.263,221.791 255.5,220.5C 253.156,219.514 250.989,218.181 249,216.5C 248.167,216.833 247.333,217.167 246.5,217.5C 245.355,220.748 244.521,224.081 244,227.5C 241.908,229.475 240.075,231.475 238.5,233.5C 240.505,227.817 242.505,222.151 244.5,216.5C 249.925,214.151 253.925,215.485 256.5,220.5 Z"/></g>
<g><path style="opacity:1" fill="#251f15" d="M 185.5,207.5 C 182.025,214.482 181.525,221.815 184,229.5C 185.612,237.13 190.112,241.797 197.5,243.5C 200.356,245.006 203.523,245.672 207,245.5C 209.361,245.496 211.527,245.163 213.5,244.5C 220.829,245.076 226.995,242.743 232,237.5C 236.985,229.403 238.818,220.737 237.5,211.5C 238.496,211.414 239.329,211.748 240,212.5C 240.128,215.514 240.128,218.514 240,221.5C 241.044,220.377 241.71,219.044 242,217.5C 242.671,216.748 243.504,216.414 244.5,216.5C 242.505,222.151 240.505,227.817 238.5,233.5C 236.072,238.761 232.405,242.928 227.5,246C 216.241,248.804 204.907,249.138 193.5,247C 189.726,245.698 186.559,243.531 184,240.5C 181.398,234.647 179.231,228.647 177.5,222.5C 178.735,222.721 179.735,223.388 180.5,224.5C 181.309,218.835 181.975,213.168 182.5,207.5C 183.5,207.5 184.5,207.5 185.5,207.5 Z"/></g>
<g><path style="opacity:1" fill="#f5b341" d="M 357.5,210.5 C 359.846,211.523 362.179,212.523 364.5,213.5C 364.974,219.228 364.307,224.728 362.5,230C 363.156,231.909 363.656,233.742 364,235.5C 363.667,235.833 363.333,236.167 363,236.5C 362.163,234.993 360.996,234.493 359.5,235C 357.87,237.829 356.536,240.829 355.5,244C 352.678,245.622 349.678,246.789 346.5,247.5C 348.114,245.544 349.781,243.544 351.5,241.5C 354.669,239.522 357.169,236.855 359,233.5C 364.111,225.263 363.611,217.596 357.5,210.5 Z"/></g>
<g><path style="opacity:1" fill="#f5c16c" d="M 20.5,186.5 C 17.8028,203.194 15.3028,219.861 13,236.5C 12.5001,250.496 12.3334,264.496 12.5,278.5C 11.6805,275.695 11.1805,272.695 11,269.5C 9.65146,247.661 10.9848,225.994 15,204.5C 16.3671,198.241 18.2004,192.241 20.5,186.5 Z"/></g>
<g><path style="opacity:1" fill="#e0cca9" d="M 313.5,232.5 C 312.391,238.109 309.058,241.609 303.5,243C 294.203,244.398 284.87,244.732 275.5,244C 273.253,242.723 271.253,241.223 269.5,239.5C 272.811,239.909 275.811,241.076 278.5,243C 281.167,243.167 283.833,243.333 286.5,243.5C 292.659,242.117 298.992,241.45 305.5,241.5C 305.5,240.5 305.5,239.5 305.5,238.5C 306.833,238.5 308.167,238.5 309.5,238.5C 309.684,235.663 311.018,233.663 313.5,232.5 Z"/></g>
<g><path style="opacity:1" fill="#443c24" d="M 197.5,243.5 C 202.797,244.275 208.13,244.608 213.5,244.5C 211.527,245.163 209.361,245.496 207,245.5C 203.523,245.672 200.356,245.006 197.5,243.5 Z"/></g>
<g><path style="opacity:1" fill="#efc074" d="M 351.5,241.5 C 349.781,243.544 348.114,245.544 346.5,247.5C 342.702,250.956 339.702,254.956 337.5,259.5C 337.372,257.345 337.872,255.345 339,253.5C 342.065,250.938 344.565,247.938 346.5,244.5C 347.94,243.048 349.606,242.048 351.5,241.5 Z"/></g>
<g><path style="opacity:1" fill="#8b785b" d="M 169.5,243.5 C 170.486,247.97 170.819,252.637 170.5,257.5C 169.326,256.486 168.66,255.153 168.5,253.5C 169.479,250.375 169.813,247.042 169.5,243.5 Z"/></g>
<g><path style="opacity:1" fill="#e2c599" d="M 142.5,210.5 C 146.291,210.659 149.958,211.325 153.5,212.5C 154.514,214.574 155.514,216.574 156.5,218.5C 156.263,219.791 156.596,220.791 157.5,221.5C 161.151,232.143 164.817,242.809 168.5,253.5C 168.66,255.153 169.326,256.486 170.5,257.5C 169.266,259.398 169.599,261.065 171.5,262.5C 168.167,262.5 164.833,262.5 161.5,262.5C 160.268,258.059 158.101,254.059 155,250.5C 150.861,246.188 146.694,242.188 142.5,238.5C 141.925,236.589 140.925,234.922 139.5,233.5C 139.662,231.473 139.495,229.473 139,227.5C 136.523,224.276 135.857,220.61 137,216.5C 139.04,214.63 140.873,212.63 142.5,210.5 Z"/></g>
<g><path style="opacity:1" fill="#817250" d="M 328.5,250.5 C 328.263,251.791 328.596,252.791 329.5,253.5C 329.34,255.153 328.674,256.486 327.5,257.5C 327.198,254.941 327.532,252.607 328.5,250.5 Z"/></g>
<g><path style="opacity:1" fill="#f3b349" d="M 346.5,247.5 C 345.736,250.787 343.903,253.454 341,255.5C 340.489,257.878 339.822,260.212 339,262.5C 335.541,264.66 331.708,265.827 327.5,266C 326.968,268.463 325.634,270.297 323.5,271.5C 324.723,269.128 325.723,266.628 326.5,264C 329.036,263.814 331.369,263.314 333.5,262.5C 335.404,262.262 336.738,261.262 337.5,259.5C 339.702,254.956 342.702,250.956 346.5,247.5 Z"/></g>
<g><path style="opacity:1" fill="#f7cc84" d="M 161.5,262.5 C 164.833,262.5 168.167,262.5 171.5,262.5C 172.496,262.414 173.329,262.748 174,263.5C 175.178,267.182 176.344,270.849 177.5,274.5C 175.15,271.651 173.15,268.485 171.5,265C 167.821,264.974 164.488,264.14 161.5,262.5 Z"/></g>
<g><path style="opacity:0.837" fill="#f2c372" d="M 485.5,277.5 C 485.171,286.779 483.838,295.779 481.5,304.5C 481.676,296.107 482.509,287.774 484,279.5C 484.278,278.584 484.778,277.918 485.5,277.5 Z"/></g>
<g><path style="opacity:0.553" fill="#f3cf93" d="M 12.5,278.5 C 14.2597,285.934 15.2597,293.601 15.5,301.5C 13.7403,294.066 12.7403,286.399 12.5,278.5 Z"/></g>
<g><path style="opacity:1" fill="#efb458" d="M 307.5,302.5 C 307.019,305.455 305.519,307.789 303,309.5C 302.502,312.817 302.335,316.15 302.5,319.5C 301.232,317.095 300.565,314.428 300.5,311.5C 302.513,308.165 304.846,305.165 307.5,302.5 Z"/></g>
<g><path style="opacity:0.957" fill="#eec071" d="M 15.5,302.5 C 16.9731,304.583 18.1398,306.916 19,309.5C 19.8375,314.18 20.6708,318.846 21.5,323.5C 19.006,316.734 17.006,309.734 15.5,302.5 Z"/></g>
<g><path style="opacity:1" fill="#f2b54a" d="M 191.5,304.5 C 194.243,306.239 196.243,308.573 197.5,311.5C 196.781,313.764 196.448,316.097 196.5,318.5C 195.129,324.254 193.795,329.92 192.5,335.5C 192.953,329.475 193.62,323.475 194.5,317.5C 194.864,312.78 193.864,308.447 191.5,304.5 Z"/></g>
<g><path style="opacity:1" fill="#f1bc5f" d="M 481.5,307.5 C 479.795,315.949 477.128,323.949 473.5,331.5C 474.099,326.139 474.933,320.806 476,315.5C 478.114,312.907 479.947,310.24 481.5,307.5 Z"/></g>
<g><path style="opacity:1" fill="#b79f7c" d="M 197.5,311.5 C 204.998,321.165 213.665,329.665 223.5,337C 236.115,343.689 249.448,345.355 263.5,342C 278.38,335.615 290.38,325.781 299.5,312.5C 299.334,316.514 299.501,320.514 300,324.5C 301.809,328.823 302.976,333.323 303.5,338C 303.836,339.03 304.503,339.53 305.5,339.5C 305.957,344.201 306.624,348.868 307.5,353.5C 307.167,353.5 306.833,353.5 306.5,353.5C 306.477,351.073 305.977,348.74 305,346.5C 285.724,369.933 262.224,375.433 234.5,363C 226.667,356.5 219.5,349.333 213,341.5C 207.22,333.91 201.72,326.243 196.5,318.5C 196.448,316.097 196.781,313.764 197.5,311.5 Z"/></g>
<g><path style="opacity:0.745" fill="#efc578" d="M 21.5,323.5 C 22.8923,325.273 24.059,327.273 25,329.5C 27.2108,336.562 29.3774,343.562 31.5,350.5C 26.6043,342.154 23.271,333.154 21.5,323.5 Z"/></g>
<g><path style="opacity:1" fill="#eeaf45" d="M 302.5,319.5 C 304.1,324.304 305.766,329.304 307.5,334.5C 310.021,334.56 312.354,333.894 314.5,332.5C 316.279,333.394 317.612,334.727 318.5,336.5C 317.033,336.106 315.533,335.773 314,335.5C 312.301,335.387 311.134,336.053 310.5,337.5C 309.167,337.833 307.833,338.167 306.5,338.5C 305.21,337.942 304.377,336.942 304,335.5C 303.609,330.146 303.109,324.812 302.5,319.5 Z"/></g>
<g><path style="opacity:1" fill="#c09f6c" d="M 300.5,311.5 C 300.565,314.428 301.232,317.095 302.5,319.5C 303.109,324.812 303.609,330.146 304,335.5C 304.377,336.942 305.21,337.942 306.5,338.5C 306.5,339.167 306.167,339.5 305.5,339.5C 304.503,339.53 303.836,339.03 303.5,338C 302.976,333.323 301.809,328.823 300,324.5C 299.501,320.514 299.334,316.514 299.5,312.5C 299.5,311.833 299.833,311.5 300.5,311.5 Z"/></g>
<g><path style="opacity:0.341" fill="#f3d683" d="M 473.5,331.5 C 473.59,334.152 472.924,336.485 471.5,338.5C 471.41,335.848 472.076,333.515 473.5,331.5 Z"/></g>
<g><path style="opacity:1" fill="#4c6263" d="M 185.5,335.5 C 186.514,336.674 187.847,337.34 189.5,337.5C 189.5,337.833 189.5,338.167 189.5,338.5C 188.167,338.5 186.833,338.5 185.5,338.5C 184.739,337.609 183.739,336.942 182.5,336.5C 177.898,338.534 173.565,341.034 169.5,344C 168.207,344.49 166.873,344.657 165.5,344.5C 165.5,344.167 165.5,343.833 165.5,343.5C 170.061,340.915 174.727,338.415 179.5,336C 181.473,335.505 183.473,335.338 185.5,335.5 Z"/></g>
<g><path style="opacity:1" fill="#4d666d" d="M 318.5,336.5 C 321.218,337.104 323.551,338.437 325.5,340.5C 321.48,339.627 317.48,338.627 313.5,337.5C 312.798,336.884 311.798,336.884 310.5,337.5C 311.134,336.053 312.301,335.387 314,335.5C 315.533,335.773 317.033,336.106 318.5,336.5 Z"/></g>
<g><path style="opacity:1" fill="#17659a" d="M 185.5,338.5 C 186.5,344.5 187.5,350.5 188.5,356.5C 189.617,363.252 190.95,369.918 192.5,376.5C 191.621,379.812 191.454,383.145 192,386.5C 192.368,385.09 193.201,384.09 194.5,383.5C 198.565,390.31 201.565,397.643 203.5,405.5C 204.325,406.386 205.325,406.719 206.5,406.5C 211.896,417.625 217.563,428.625 223.5,439.5C 229.428,452.036 234.261,465.036 238,478.5C 238.383,479.056 238.883,479.389 239.5,479.5C 240.167,483.5 240.833,487.5 241.5,491.5C 240.5,491.5 239.5,491.5 238.5,491.5C 232.819,491.365 227.152,491.032 221.5,490.5C 221.167,489.833 220.833,489.167 220.5,488.5C 217.587,483.071 214.42,477.737 211,472.5C 194.748,455.664 178.081,439.331 161,423.5C 160.333,422.167 160.333,420.833 161,419.5C 165.561,412.21 169.728,404.71 173.5,397C 164.87,392.685 156.203,388.351 147.5,384C 146.978,383.439 146.645,382.772 146.5,382C 151.358,368.673 157.691,356.173 165.5,344.5C 166.873,344.657 168.207,344.49 169.5,344C 173.565,341.034 177.898,338.534 182.5,336.5C 183.739,336.942 184.739,337.609 185.5,338.5 Z"/></g>
<g><path style="opacity:1" fill="#e7b14b" d="M 185.5,335.5 C 183.473,335.338 181.473,335.505 179.5,336C 174.727,338.415 170.061,340.915 165.5,343.5C 163.265,343.205 161.265,343.539 159.5,344.5C 157.5,344.5 155.5,344.5 153.5,344.5C 157.424,342.877 161.757,341.877 166.5,341.5C 165.975,340.808 165.308,340.308 164.5,340C 169.365,338.948 174.031,337.282 178.5,335C 181.039,334.204 183.372,334.371 185.5,335.5 Z"/></g>
<g><path style="opacity:1" fill="#29465b" d="M 185.5,338.5 C 186.833,338.5 188.167,338.5 189.5,338.5C 190.117,338.611 190.617,338.944 191,339.5C 191.875,345.332 191.375,350.999 189.5,356.5C 189.167,356.5 188.833,356.5 188.5,356.5C 187.5,350.5 186.5,344.5 185.5,338.5 Z"/></g>
<g><path style="opacity:1" fill="#898e66" d="M 325.5,340.5 C 327.967,340.755 329.967,341.755 331.5,343.5C 329.033,343.245 327.033,342.245 325.5,340.5 Z"/></g>
<g><path style="opacity:1" fill="#90a399" d="M 165.5,343.5 C 165.5,343.833 165.5,344.167 165.5,344.5C 163.621,345.341 161.621,345.675 159.5,345.5C 159.5,345.167 159.5,344.833 159.5,344.5C 161.265,343.539 163.265,343.205 165.5,343.5 Z"/></g>
<g><path style="opacity:1" fill="#e3c69b" d="M 196.5,318.5 C 201.72,326.243 207.22,333.91 213,341.5C 219.5,349.333 226.667,356.5 234.5,363C 262.224,375.433 285.724,369.933 305,346.5C 305.977,348.74 306.477,351.073 306.5,353.5C 307.285,357.64 306.119,360.973 303,363.5C 302.517,364.448 302.351,365.448 302.5,366.5C 301.5,366.5 300.5,366.5 299.5,366.5C 299.374,369.468 297.874,371.468 295,372.5C 293.323,375.987 291.489,379.32 289.5,382.5C 287.857,382.48 286.524,383.147 285.5,384.5C 283.724,382.553 281.724,382.22 279.5,383.5C 280.751,384.631 281.751,385.964 282.5,387.5C 281.714,389.041 280.714,390.374 279.5,391.5C 272.662,397.751 264.662,402.251 255.5,405C 250.096,405.772 244.762,405.439 239.5,404C 235.963,401.372 231.963,399.706 227.5,399C 223.892,395.549 219.892,392.716 215.5,390.5C 213.203,387.025 210.203,384.525 206.5,383C 204.324,379.103 202.157,375.269 200,371.5C 196.535,371.033 194.868,369.033 195,365.5C 194.292,364.619 193.458,363.953 192.5,363.5C 192.672,362.508 192.338,361.842 191.5,361.5C 190.069,360.22 189.402,358.553 189.5,356.5C 191.375,350.999 191.875,345.332 191,339.5C 190.617,338.944 190.117,338.611 189.5,338.5C 189.5,338.167 189.5,337.833 189.5,337.5C 191.179,337.715 192.179,337.048 192.5,335.5C 193.795,329.92 195.129,324.254 196.5,318.5 Z"/></g>
<g><path style="opacity:1" fill="#17659a" d="M 313.5,337.5 C 317.48,338.627 321.48,339.627 325.5,340.5C 327.033,342.245 329.033,343.245 331.5,343.5C 331.5,344.167 331.833,344.5 332.5,344.5C 332.833,345.5 333.5,346.167 334.5,346.5C 338.376,354.239 342.542,361.906 347,369.5C 348.499,374.161 349.999,378.828 351.5,383.5C 341.999,387.415 332.999,392.082 324.5,397.5C 328.652,405.135 332.819,412.802 337,420.5C 337.667,421.5 337.667,422.5 337,423.5C 319.67,439.163 303.003,455.497 287,472.5C 282.924,478.313 279.09,484.313 275.5,490.5C 270.187,491.098 264.854,491.431 259.5,491.5C 258.022,491.762 256.689,491.429 255.5,490.5C 258.969,480.949 261.969,471.282 264.5,461.5C 270.13,451.941 274.797,441.941 278.5,431.5C 288.467,413.565 296.801,394.899 303.5,375.5C 304.712,374.77 305.712,373.77 306.5,372.5C 307.678,367.228 308.345,361.895 308.5,356.5C 309.748,350.175 311.415,343.842 313.5,337.5 Z"/></g>
<g><path style="opacity:1" fill="#c6b170" d="M 331.5,343.5 C 340.872,343.465 349.872,344.798 358.5,347.5C 349.972,346.125 341.305,345.125 332.5,344.5C 331.833,344.5 331.5,344.167 331.5,343.5 Z"/></g>
<g><path style="opacity:1" fill="#a0aa8d" d="M 153.5,344.5 C 155.5,344.5 157.5,344.5 159.5,344.5C 159.5,344.833 159.5,345.167 159.5,345.5C 151.452,346.616 143.452,347.949 135.5,349.5C 134.5,349.5 133.5,349.5 132.5,349.5C 132.5,349.167 132.5,348.833 132.5,348.5C 139.476,347.169 146.476,345.836 153.5,344.5 Z"/></g>
<g><path style="opacity:1" fill="#47a4e4" d="M 165.5,344.5 C 157.691,356.173 151.358,368.673 146.5,382C 146.645,382.772 146.978,383.439 147.5,384C 156.203,388.351 164.87,392.685 173.5,397C 169.728,404.71 165.561,412.21 161,419.5C 160.333,420.833 160.333,422.167 161,423.5C 178.081,439.331 194.748,455.664 211,472.5C 214.42,477.737 217.587,483.071 220.5,488.5C 211.417,488.038 202.417,487.038 193.5,485.5C 184.375,483.469 175.375,480.969 166.5,478C 163.931,477.102 161.598,475.935 159.5,474.5C 157.325,471.522 154.325,470.022 150.5,470C 149.643,469.311 148.977,468.478 148.5,467.5C 144.434,466.121 140.434,464.788 136.5,463.5C 133.083,458.915 128.417,456.248 122.5,455.5C 121.859,454.518 121.193,453.518 120.5,452.5C 117.083,450.688 113.75,449.021 110.5,447.5C 106.949,445.889 103.949,443.556 101.5,440.5C 100.27,438.703 99.6036,436.703 99.5,434.5C 96.4017,434.587 96.0684,434.087 98.5,433C 95.3328,432.499 92.9995,430.833 91.5,428C 89.4817,427.495 87.4817,426.995 85.5,426.5C 79.8272,422.827 75.1605,418.161 71.5,412.5C 70.9856,410.302 69.9856,408.302 68.5,406.5C 69.9501,405.15 70.6168,403.484 70.5,401.5C 69.448,401.649 68.448,401.483 67.5,401C 68.6956,400.346 68.6956,399.846 67.5,399.5C 66.6143,400.325 66.281,401.325 66.5,402.5C 65.5,402.5 64.5,402.5 63.5,402.5C 63.9683,399.1 62.6349,396.767 59.5,395.5C 58.5713,394.311 58.238,392.978 58.5,391.5C 58.8333,390.167 59.1667,388.833 59.5,387.5C 63.1027,385.565 65.1027,382.565 65.5,378.5C 70.8604,373.806 75.8604,368.806 80.5,363.5C 80.8333,363.5 81.1667,363.5 81.5,363.5C 84.3263,363.002 86.6597,361.669 88.5,359.5C 90.1667,358.833 91.8333,358.167 93.5,357.5C 94.1667,357.5 94.8333,357.5 95.5,357.5C 105.74,355.358 116.073,353.691 126.5,352.5C 129.866,352.241 132.866,351.241 135.5,349.5C 143.452,347.949 151.452,346.616 159.5,345.5C 161.621,345.675 163.621,345.341 165.5,344.5 Z"/></g>
<g><path style="opacity:1" fill="#65a1c0" d="M 332.5,344.5 C 341.305,345.125 349.972,346.125 358.5,347.5C 358.5,347.833 358.5,348.167 358.5,348.5C 350.432,348.491 342.432,347.824 334.5,346.5C 333.5,346.167 332.833,345.5 332.5,344.5 Z"/></g>
<g><path style="opacity:1" fill="#d4b166" d="M 132.5,348.5 C 132.5,348.833 132.5,349.167 132.5,349.5C 127.523,350.327 122.523,350.994 117.5,351.5C 114.505,351.294 111.838,351.96 109.5,353.5C 108.167,353.5 106.833,353.5 105.5,353.5C 107.019,352.59 108.685,351.757 110.5,351C 117.936,350.324 125.269,349.491 132.5,348.5 Z"/></g>
<g><path style="opacity:1" fill="#2a4556" d="M 313.5,337.5 C 311.415,343.842 309.748,350.175 308.5,356.5C 308.5,355.833 308.167,355.5 307.5,355.5C 307.5,354.833 307.5,354.167 307.5,353.5C 306.624,348.868 305.957,344.201 305.5,339.5C 306.167,339.5 306.5,339.167 306.5,338.5C 307.833,338.167 309.167,337.833 310.5,337.5C 311.798,336.884 312.798,336.884 313.5,337.5 Z"/></g>
<g><path style="opacity:1" fill="#48a4e4" d="M 334.5,346.5 C 342.432,347.824 350.432,348.491 358.5,348.5C 360.806,348.993 363.139,349.326 365.5,349.5C 366.167,349.5 366.833,349.5 367.5,349.5C 367.5,349.833 367.5,350.167 367.5,350.5C 367.611,351.117 367.944,351.617 368.5,352C 375.06,353.614 381.727,354.78 388.5,355.5C 388.291,356.086 387.957,356.586 387.5,357C 394.995,357.38 402.328,358.546 409.5,360.5C 412.283,363.427 415.616,365.427 419.5,366.5C 421.573,368.58 423.907,370.246 426.5,371.5C 428.219,373.544 429.886,375.544 431.5,377.5C 431.733,379.062 432.4,380.395 433.5,381.5C 433.882,384.65 435.216,387.317 437.5,389.5C 438.474,391.743 438.808,394.076 438.5,396.5C 436.058,396.119 435.391,396.786 436.5,398.5C 435.071,400.878 433.238,402.212 431,402.5C 429.557,405.425 428.391,408.425 427.5,411.5C 423.86,415.806 419.86,419.806 415.5,423.5C 414.127,423.343 412.793,423.51 411.5,424C 408.824,428.5 405.157,432 400.5,434.5C 399.754,435.736 399.421,437.07 399.5,438.5C 392.559,444.311 385.226,449.644 377.5,454.5C 373.547,454.654 369.881,455.654 366.5,457.5C 366.5,458.5 366.5,459.5 366.5,460.5C 363.009,460.909 359.675,461.909 356.5,463.5C 354.389,464.605 353.055,466.271 352.5,468.5C 348.306,468.55 344.306,469.383 340.5,471C 339.833,471.667 339.167,472.333 338.5,473C 333.948,473.276 330.281,475.109 327.5,478.5C 320.394,479.687 313.394,481.187 306.5,483C 305.619,483.708 304.953,484.542 304.5,485.5C 295.162,488.335 285.496,490.001 275.5,490.5C 279.09,484.313 282.924,478.313 287,472.5C 303.003,455.497 319.67,439.163 337,423.5C 337.667,422.5 337.667,421.5 337,420.5C 332.819,412.802 328.652,405.135 324.5,397.5C 332.999,392.082 341.999,387.415 351.5,383.5C 349.999,378.828 348.499,374.161 347,369.5C 342.542,361.906 338.376,354.239 334.5,346.5 Z"/></g>
<g><path style="opacity:1" fill="#a8a985" d="M 358.5,348.5 C 358.5,348.167 358.5,347.833 358.5,347.5C 359.833,347.5 361.167,347.5 362.5,347.5C 363.5,348.167 364.5,348.833 365.5,349.5C 363.139,349.326 360.806,348.993 358.5,348.5 Z"/></g>
<g><path style="opacity:1" fill="#d8b363" d="M 362.5,347.5 C 369.211,348.316 375.877,349.316 382.5,350.5C 382.5,350.833 382.5,351.167 382.5,351.5C 379.833,351.5 377.167,351.5 374.5,351.5C 372.562,349.837 370.228,349.171 367.5,349.5C 366.833,349.5 366.167,349.5 365.5,349.5C 364.5,348.833 363.5,348.167 362.5,347.5 Z"/></g>
<g><path style="opacity:1" fill="#90a496" d="M 367.5,350.5 C 367.5,350.167 367.5,349.833 367.5,349.5C 370.228,349.171 372.562,349.837 374.5,351.5C 372.139,351.326 369.806,350.993 367.5,350.5 Z"/></g>
<g><path style="opacity:1" fill="#92a48d" d="M 117.5,351.5 C 115.095,352.768 112.428,353.435 109.5,353.5C 111.838,351.96 114.505,351.294 117.5,351.5 Z"/></g>
<g><path style="opacity:1" fill="#bdaf74" d="M 383.5,351.5 C 386.152,351.41 388.485,352.076 390.5,353.5C 387.848,353.59 385.515,352.924 383.5,351.5 Z"/></g>
<g><path style="opacity:1" fill="#64a1be" d="M 132.5,349.5 C 133.5,349.5 134.5,349.5 135.5,349.5C 132.866,351.241 129.866,352.241 126.5,352.5C 116.073,353.691 105.74,355.358 95.5,357.5C 97.5,356.5 99.5,355.5 101.5,354.5C 102.568,353.566 103.901,353.232 105.5,353.5C 106.833,353.5 108.167,353.5 109.5,353.5C 112.428,353.435 115.095,352.768 117.5,351.5C 122.523,350.994 127.523,350.327 132.5,349.5 Z"/></g>
<g><path style="opacity:1" fill="#65a1c4" d="M 367.5,350.5 C 369.806,350.993 372.139,351.326 374.5,351.5C 377.167,351.5 379.833,351.5 382.5,351.5C 382.833,351.5 383.167,351.5 383.5,351.5C 385.515,352.924 387.848,353.59 390.5,353.5C 393.598,353.756 396.598,354.422 399.5,355.5C 401.102,357.074 403.102,357.741 405.5,357.5C 406.605,358.6 407.938,359.267 409.5,359.5C 409.5,359.833 409.5,360.167 409.5,360.5C 402.328,358.546 394.995,357.38 387.5,357C 387.957,356.586 388.291,356.086 388.5,355.5C 381.727,354.78 375.06,353.614 368.5,352C 367.944,351.617 367.611,351.117 367.5,350.5 Z"/></g>
<g><path style="opacity:0.635" fill="#efc779" d="M 471.5,339.5 C 468.694,347.109 465.361,354.443 461.5,361.5C 462.502,356.66 464.002,351.993 466,347.5C 467.696,345.44 468.863,343.107 469.5,340.5C 469.957,339.702 470.624,339.369 471.5,339.5 Z"/></g>
<g><path style="opacity:0.725" fill="#f0c982" d="M 31.5,352.5 C 34.7794,353.031 36.1128,355.031 35.5,358.5C 34.1798,356.537 32.8465,354.537 31.5,352.5 Z"/></g>
<g><path style="opacity:1" fill="#bcb178" d="M 399.5,355.5 C 401.898,355.259 403.898,355.926 405.5,357.5C 403.102,357.741 401.102,357.074 399.5,355.5 Z"/></g>
<g><path style="opacity:1" fill="#b7ac84" d="M 97.5,354.5 C 98.8333,354.5 100.167,354.5 101.5,354.5C 99.5,355.5 97.5,356.5 95.5,357.5C 94.8333,357.5 94.1667,357.5 93.5,357.5C 94.5903,356.143 95.9236,355.143 97.5,354.5 Z"/></g>
<g><path style="opacity:1" fill="#f8b03a" d="M 382.5,351.5 C 382.5,351.167 382.5,350.833 382.5,350.5C 389.508,350.334 396.508,350.5 403.5,351C 402.167,351.333 400.833,351.667 399.5,352C 399.833,352.333 400.167,352.667 400.5,353C 404.541,353.173 408.541,353.673 412.5,354.5C 413.705,356.138 415.038,356.471 416.5,355.5C 419.5,358.167 422.5,360.833 425.5,363.5C 427.829,362.002 429.663,360.002 431,357.5C 431.692,358.025 432.192,358.692 432.5,359.5C 430.817,360.853 429.484,362.52 428.5,364.5C 429.154,366.115 429.654,367.782 430,369.5C 431.011,370.337 432.178,370.67 433.5,370.5C 432.746,373.256 432.746,375.922 433.5,378.5C 432.833,378.167 432.167,377.833 431.5,377.5C 429.886,375.544 428.219,373.544 426.5,371.5C 424.1,368.097 421.1,365.43 417.5,363.5C 414.588,362.571 411.921,361.238 409.5,359.5C 407.938,359.267 406.605,358.6 405.5,357.5C 403.898,355.926 401.898,355.259 399.5,355.5C 396.598,354.422 393.598,353.756 390.5,353.5C 388.485,352.076 386.152,351.41 383.5,351.5C 383.167,351.5 382.833,351.5 382.5,351.5 Z"/></g>
<g><path style="opacity:1" fill="#ecb14d" d="M 97.5,354.5 C 95.9236,355.143 94.5903,356.143 93.5,357.5C 91.8333,358.167 90.1667,358.833 88.5,359.5C 85.6689,360.079 83.3356,361.412 81.5,363.5C 81.1667,363.5 80.8333,363.5 80.5,363.5C 80.1667,363.5 79.8333,363.5 79.5,363.5C 80.0476,362.312 80.3809,361.145 80.5,360C 84.7835,359.461 88.7835,358.128 92.5,356C 92.1667,355.667 91.8333,355.333 91.5,355C 93.4727,354.505 95.4727,354.338 97.5,354.5 Z"/></g>
<g><path style="opacity:1" fill="#a8a986" d="M 88.5,359.5 C 86.6597,361.669 84.3263,363.002 81.5,363.5C 83.3356,361.412 85.6689,360.079 88.5,359.5 Z"/></g>
<g><path style="opacity:1" fill="#7ca2a9" d="M 409.5,360.5 C 409.5,360.167 409.5,359.833 409.5,359.5C 411.921,361.238 414.588,362.571 417.5,363.5C 418.167,364.5 418.833,365.5 419.5,366.5C 415.616,365.427 412.283,363.427 409.5,360.5 Z"/></g>
<g><path style="opacity:1" fill="#bdae77" d="M 417.5,363.5 C 421.1,365.43 424.1,368.097 426.5,371.5C 423.907,370.246 421.573,368.58 419.5,366.5C 418.833,365.5 418.167,364.5 417.5,363.5 Z"/></g>
<g><path style="opacity:1" fill="#f0be68" d="M 35.5,358.5 C 41.3702,365.567 45.7036,373.567 48.5,382.5C 44.1965,376.006 40.0298,369.34 36,362.5C 35.51,361.207 35.3433,359.873 35.5,358.5 Z"/></g>
<g><path style="opacity:1" fill="#397192" d="M 307.5,355.5 C 308.167,355.5 308.5,355.833 308.5,356.5C 308.345,361.895 307.678,367.228 306.5,372.5C 305.712,373.77 304.712,374.77 303.5,375.5C 304.578,372.598 305.244,369.598 305.5,366.5C 307.092,363.034 307.758,359.367 307.5,355.5 Z"/></g>
<g><path style="opacity:1" fill="#a7a886" d="M 79.5,363.5 C 79.8333,363.5 80.1667,363.5 80.5,363.5C 75.8604,368.806 70.8604,373.806 65.5,378.5C 69.4671,372.866 74.1338,367.866 79.5,363.5 Z"/></g>
<g><path style="opacity:1" fill="#decaa9" d="M 306.5,353.5 C 306.833,353.5 307.167,353.5 307.5,353.5C 307.5,354.167 307.5,354.833 307.5,355.5C 307.758,359.367 307.092,363.034 305.5,366.5C 304.833,366.5 304.5,366.833 304.5,367.5C 302.5,368.976 300.833,370.809 299.5,373C 298.234,373.309 297.067,373.809 296,374.5C 294.591,377.582 292.758,380.415 290.5,383C 289.552,383.483 288.552,383.649 287.5,383.5C 286.861,385.76 285.694,387.76 284,389.5C 282.67,390.582 281.17,391.249 279.5,391.5C 280.714,390.374 281.714,389.041 282.5,387.5C 281.751,385.964 280.751,384.631 279.5,383.5C 281.724,382.22 283.724,382.553 285.5,384.5C 286.524,383.147 287.857,382.48 289.5,382.5C 291.489,379.32 293.323,375.987 295,372.5C 297.874,371.468 299.374,369.468 299.5,366.5C 300.5,366.5 301.5,366.5 302.5,366.5C 302.351,365.448 302.517,364.448 303,363.5C 306.119,360.973 307.285,357.64 306.5,353.5 Z"/></g>
<g><path style="opacity:1" fill="#f2c26e" d="M 457.5,368.5 C 454.523,373.674 451.689,379.008 449,384.5C 447.483,386.24 445.983,387.906 444.5,389.5C 444.5,387.833 444.5,386.167 444.5,384.5C 445.822,384.67 446.989,384.337 448,383.5C 450.012,379.622 451.512,375.622 452.5,371.5C 454.664,371.279 456.33,370.279 457.5,368.5 Z"/></g>
<g><path style="opacity:1" fill="#bab076" d="M 431.5,377.5 C 432.167,377.833 432.833,378.167 433.5,378.5C 434.6,379.605 435.267,380.938 435.5,382.5C 434.833,382.167 434.167,381.833 433.5,381.5C 432.4,380.395 431.733,379.062 431.5,377.5 Z"/></g>
<g><path style="opacity:1" fill="#95a595" d="M 65.5,378.5 C 65.1027,382.565 63.1027,385.565 59.5,387.5C 59.5569,386.391 59.8902,385.391 60.5,384.5C 62.6326,382.909 64.2993,380.909 65.5,378.5 Z"/></g>
<g><path style="opacity:1" fill="#e7b55d" d="M 436.5,383.5 C 439.08,385.089 440.413,387.422 440.5,390.5C 441.959,390.567 443.292,390.234 444.5,389.5C 444.672,390.492 444.338,391.158 443.5,391.5C 442.167,391.5 440.833,391.5 439.5,391.5C 438.974,388.646 437.974,385.979 436.5,383.5 Z"/></g>
<g><path style="opacity:1" fill="#306c95" d="M 188.5,356.5 C 188.833,356.5 189.167,356.5 189.5,356.5C 189.402,358.553 190.069,360.22 191.5,361.5C 191.457,364.91 191.957,368.243 193,371.5C 197.2,383.263 201.7,394.93 206.5,406.5C 205.325,406.719 204.325,406.386 203.5,405.5C 201.565,397.643 198.565,390.31 194.5,383.5C 193.201,384.09 192.368,385.09 192,386.5C 191.454,383.145 191.621,379.812 192.5,376.5C 190.95,369.918 189.617,363.252 188.5,356.5 Z"/></g>
<g><path style="opacity:1" fill="#eab961" d="M 48.5,383.5 C 51.3648,384.191 53.5315,385.858 55,388.5C 56.0113,387.663 57.1779,387.33 58.5,387.5C 58.2852,385.821 58.9519,384.821 60.5,384.5C 59.8902,385.391 59.5569,386.391 59.5,387.5C 59.1667,388.833 58.8333,390.167 58.5,391.5C 57.5,391.833 56.8333,392.5 56.5,393.5C 53.4838,390.48 50.8171,387.146 48.5,383.5 Z"/></g>
<g><path style="opacity:1" fill="#dbdcdd" d="M 191.5,361.5 C 192.338,361.842 192.672,362.508 192.5,363.5C 193.406,367.636 195.406,371.136 198.5,374C 197.394,375.882 197.394,377.716 198.5,379.5C 199.251,378.624 199.751,377.624 200,376.5C 201.667,378.833 203.333,381.167 205,383.5C 210.474,386.977 215.307,391.144 219.5,396C 217.998,396.583 216.665,397.416 215.5,398.5C 216.167,398.833 216.833,399.167 217.5,399.5C 218.833,398.833 220.167,398.167 221.5,397.5C 226.476,398.985 230.81,401.485 234.5,405C 239.137,406.101 243.637,407.601 248,409.5C 252.048,408.103 256.214,407.103 260.5,406.5C 260.833,405.833 261.167,405.167 261.5,404.5C 266.424,403.071 271.257,401.404 276,399.5C 277.713,398.863 277.879,397.863 276.5,396.5C 277.167,396.167 277.833,395.833 278.5,395.5C 280.334,396.754 282.334,397.421 284.5,397.5C 284.211,394.351 284.711,391.351 286,388.5C 287.813,388.253 289.647,387.92 291.5,387.5C 292.189,385.556 292.689,383.556 293,381.5C 294.011,380.663 295.178,380.33 296.5,380.5C 296.38,382.199 296.046,383.865 295.5,385.5C 295.833,386.167 296.167,386.833 296.5,387.5C 296.833,387.167 297.167,386.833 297.5,386.5C 299.688,380.056 302.022,373.723 304.5,367.5C 304.5,366.833 304.833,366.5 305.5,366.5C 305.244,369.598 304.578,372.598 303.5,375.5C 296.801,394.899 288.467,413.565 278.5,431.5C 276.395,432.987 274.728,434.987 273.5,437.5C 270.109,445.338 267.109,453.338 264.5,461.5C 261.969,471.282 258.969,480.949 255.5,490.5C 256.689,491.429 258.022,491.762 259.5,491.5C 252.5,492.833 245.5,492.833 238.5,491.5C 239.5,491.5 240.5,491.5 241.5,491.5C 240.833,487.5 240.167,483.5 239.5,479.5C 237.664,472.821 235.831,466.155 234,459.5C 231.227,455.185 229.227,450.518 228,445.5C 226.637,443.316 225.137,441.316 223.5,439.5C 217.563,428.625 211.896,417.625 206.5,406.5C 201.7,394.93 197.2,383.263 193,371.5C 191.957,368.243 191.457,364.91 191.5,361.5 Z"/></g>
<g><path style="opacity:1" fill="#b0bca8" d="M 439.5,391.5 C 440.833,391.5 442.167,391.5 443.5,391.5C 442.488,392.872 441.488,394.205 440.5,395.5C 440.167,394.167 439.833,392.833 439.5,391.5 Z"/></g>
<g><path style="opacity:1" fill="#78afce" d="M 433.5,381.5 C 434.167,381.833 434.833,382.167 435.5,382.5C 435.5,383.167 435.833,383.5 436.5,383.5C 437.974,385.979 438.974,388.646 439.5,391.5C 439.833,392.833 440.167,394.167 440.5,395.5C 436.864,401.463 432.53,406.796 427.5,411.5C 428.391,408.425 429.557,405.425 431,402.5C 433.238,402.212 435.071,400.878 436.5,398.5C 435.391,396.786 436.058,396.119 438.5,396.5C 438.808,394.076 438.474,391.743 437.5,389.5C 435.216,387.317 433.882,384.65 433.5,381.5 Z"/></g>
<g><path style="opacity:1" fill="#66aada" d="M 58.5,391.5 C 58.238,392.978 58.5713,394.311 59.5,395.5C 62.6349,396.767 63.9683,399.1 63.5,402.5C 64.5,402.5 65.5,402.5 66.5,402.5C 66.281,401.325 66.6143,400.325 67.5,399.5C 68.6956,399.846 68.6956,400.346 67.5,401C 68.448,401.483 69.448,401.649 70.5,401.5C 70.6168,403.484 69.9501,405.15 68.5,406.5C 69.9856,408.302 70.9856,410.302 71.5,412.5C 65.3639,407.034 60.3639,400.701 56.5,393.5C 56.8333,392.5 57.5,391.833 58.5,391.5 Z"/></g>
<g><path style="opacity:1" fill="#e0d9ce" d="M 192.5,363.5 C 193.458,363.953 194.292,364.619 195,365.5C 194.868,369.033 196.535,371.033 200,371.5C 202.157,375.269 204.324,379.103 206.5,383C 210.203,384.525 213.203,387.025 215.5,390.5C 219.892,392.716 223.892,395.549 227.5,399C 231.963,399.706 235.963,401.372 239.5,404C 244.762,405.439 250.096,405.772 255.5,405C 264.662,402.251 272.662,397.751 279.5,391.5C 281.17,391.249 282.67,390.582 284,389.5C 285.694,387.76 286.861,385.76 287.5,383.5C 288.552,383.649 289.552,383.483 290.5,383C 292.758,380.415 294.591,377.582 296,374.5C 297.067,373.809 298.234,373.309 299.5,373C 300.833,370.809 302.5,368.976 304.5,367.5C 302.022,373.723 299.688,380.056 297.5,386.5C 297.167,386.833 296.833,387.167 296.5,387.5C 296.167,386.833 295.833,386.167 295.5,385.5C 296.046,383.865 296.38,382.199 296.5,380.5C 295.178,380.33 294.011,380.663 293,381.5C 292.689,383.556 292.189,385.556 291.5,387.5C 289.647,387.92 287.813,388.253 286,388.5C 284.711,391.351 284.211,394.351 284.5,397.5C 282.334,397.421 280.334,396.754 278.5,395.5C 277.833,395.833 277.167,396.167 276.5,396.5C 277.879,397.863 277.713,398.863 276,399.5C 271.257,401.404 266.424,403.071 261.5,404.5C 261.167,405.167 260.833,405.833 260.5,406.5C 256.214,407.103 252.048,408.103 248,409.5C 243.637,407.601 239.137,406.101 234.5,405C 230.81,401.485 226.476,398.985 221.5,397.5C 220.167,398.167 218.833,398.833 217.5,399.5C 216.833,399.167 216.167,398.833 215.5,398.5C 216.665,397.416 217.998,396.583 219.5,396C 215.307,391.144 210.474,386.977 205,383.5C 203.333,381.167 201.667,378.833 200,376.5C 199.751,377.624 199.251,378.624 198.5,379.5C 197.394,377.716 197.394,375.882 198.5,374C 195.406,371.136 193.406,367.636 192.5,363.5 Z"/></g>
<g><path style="opacity:1" fill="#7bb4d6" d="M 415.5,423.5 C 410.796,429.205 405.463,434.205 399.5,438.5C 399.421,437.07 399.754,435.736 400.5,434.5C 405.157,432 408.824,428.5 411.5,424C 412.793,423.51 414.127,423.343 415.5,423.5 Z"/></g>
<g><path style="opacity:1" fill="#68addd" d="M 85.5,426.5 C 87.4817,426.995 89.4817,427.495 91.5,428C 92.9995,430.833 95.3328,432.499 98.5,433C 96.0684,434.087 96.4017,434.587 99.5,434.5C 99.6036,436.703 100.27,438.703 101.5,440.5C 95.2473,436.916 89.9139,432.249 85.5,426.5 Z"/></g>
<g><path style="opacity:1" fill="#c7d8e5" d="M 278.5,431.5 C 274.797,441.941 270.13,451.941 264.5,461.5C 267.109,453.338 270.109,445.338 273.5,437.5C 274.728,434.987 276.395,432.987 278.5,431.5 Z"/></g>
<g><path style="opacity:0.925" fill="#78b2d4" d="M 110.5,447.5 C 113.75,449.021 117.083,450.688 120.5,452.5C 121.193,453.518 121.859,454.518 122.5,455.5C 118.148,453.327 114.148,450.66 110.5,447.5 Z"/></g>
<g><path style="opacity:1" fill="#79b1d8" d="M 122.5,455.5 C 128.417,456.248 133.083,458.915 136.5,463.5C 131.5,461.336 126.833,458.669 122.5,455.5 Z"/></g>
<g><path style="opacity:1" fill="#78b3d8" d="M 377.5,454.5 C 369.691,459.909 361.358,464.576 352.5,468.5C 353.055,466.271 354.389,464.605 356.5,463.5C 359.675,461.909 363.009,460.909 366.5,460.5C 366.5,459.5 366.5,458.5 366.5,457.5C 369.881,455.654 373.547,454.654 377.5,454.5 Z"/></g>
<g><path style="opacity:1" fill="#80b5d9" d="M 136.5,463.5 C 140.434,464.788 144.434,466.121 148.5,467.5C 148.977,468.478 149.643,469.311 150.5,470C 154.325,470.022 157.325,471.522 159.5,474.5C 152.959,472.487 146.625,469.987 140.5,467C 138.907,466.051 137.574,464.885 136.5,463.5 Z"/></g>
<g><path style="opacity:1" fill="#c4d8e6" d="M 223.5,439.5 C 225.137,441.316 226.637,443.316 228,445.5C 229.227,450.518 231.227,455.185 234,459.5C 235.831,466.155 237.664,472.821 239.5,479.5C 238.883,479.389 238.383,479.056 238,478.5C 234.261,465.036 229.428,452.036 223.5,439.5 Z"/></g>
<g><path style="opacity:1" fill="#7ab6d7" d="M 352.5,468.5 C 344.546,472.639 336.213,475.972 327.5,478.5C 330.281,475.109 333.948,473.276 338.5,473C 339.167,472.333 339.833,471.667 340.5,471C 344.306,469.383 348.306,468.55 352.5,468.5 Z"/></g>
<g><path style="opacity:1" fill="#7ab2da" d="M 327.5,478.5 C 320.171,481.588 312.504,483.921 304.5,485.5C 304.953,484.542 305.619,483.708 306.5,483C 313.394,481.187 320.394,479.687 327.5,478.5 Z"/></g>
<g><path style="opacity:0.992" fill="#88bbde" d="M 193.5,485.5 C 202.417,487.038 211.417,488.038 220.5,488.5C 220.833,489.167 221.167,489.833 221.5,490.5C 211.841,489.934 202.508,488.267 193.5,485.5 Z"/></g>
</svg>
